<?xml version="1.0" encoding="UTF-8"?>
<svg xmlns="http://www.w3.org/2000/svg" xmlns:xlink="http://www.w3.org/1999/xlink" width="50px" height="px" viewBox="0 0 50 59" version="1.1">
<g id="surface1">
<path style=" stroke:none;fill-rule:nonzero;fill:rgb(100%,90.980392%,73.72549%);fill-opacity:1;" d="M 25 9.167969 C 36.816406 9.167969 35.910156 19.425781 35.363281 26.414062 C 34.816406 33.492188 31.546875 38.847656 25 38.847656 C 18.453125 38.847656 15.089844 33.402344 14.636719 26.414062 C 14.089844 19.425781 13.183594 9.167969 25 9.167969 "/>
<path style=" stroke:none;fill-rule:nonzero;fill:rgb(74.117647%,59.215686%,37.647059%);fill-opacity:1;" d="M 15 29.136719 C 16.089844 34.765625 19.363281 38.847656 25 38.847656 C 30.816406 38.847656 34.089844 34.582031 35.089844 28.683594 C 33.910156 30.136719 32.546875 31.226562 30.546875 31.226562 C 26.910156 31.226562 26.910156 30.769531 24.816406 30.769531 C 22.726562 30.769531 22.636719 31.226562 19.089844 31.226562 C 17.363281 31.132812 16.089844 30.316406 15 29.136719 Z M 15 29.136719 "/>
<path style=" stroke:none;fill-rule:nonzero;fill:rgb(94.117647%,73.333333%,16.078431%);fill-opacity:1;" d="M 42.089844 59 C 41.546875 59 42.089844 49.832031 42.089844 49.832031 C 42.089844 45.746094 37.089844 41.84375 33.273438 41.753906 C 27.636719 46.292969 22.273438 46.203125 16.636719 41.664062 C 12.816406 41.84375 7.636719 44.75 7.636719 48.742188 C 7.636719 48.742188 8 58.910156 7.546875 58.910156 "/>
<path style=" stroke:none;fill-rule:nonzero;fill:rgb(87.45098%,52.941176%,22.745098%);fill-opacity:1;" d="M 37.636719 59 L 42.363281 59 C 42.546875 56.277344 43.089844 42.207031 33.273438 42.207031 C 30.363281 44.113281 28.816406 44.929688 25.183594 45.476562 C 36.546875 45.839844 37 55.007812 37.636719 59 Z M 37.636719 59 "/>
<path style=" stroke:none;fill-rule:nonzero;fill:rgb(10.980392%,10.980392%,10.588235%);fill-opacity:1;" d="M 30.089844 25.324219 C 30.089844 26.324219 29.273438 27.140625 28.273438 27.140625 C 27.273438 27.140625 26.453125 26.324219 26.453125 25.324219 C 26.453125 24.324219 27.273438 23.507812 28.273438 23.507812 C 29.273438 23.507812 30.089844 24.324219 30.089844 25.324219 "/>
<path style=" stroke:none;fill-rule:nonzero;fill:rgb(10.980392%,10.980392%,10.588235%);fill-opacity:1;" d="M 22.816406 25.324219 C 22.816406 26.324219 22 27.140625 21 27.140625 C 20 27.140625 19.183594 26.324219 19.183594 25.324219 C 19.183594 24.324219 20 23.507812 21 23.507812 C 22 23.507812 22.816406 24.324219 22.816406 25.324219 "/>
<path style=" stroke:none;fill-rule:nonzero;fill:rgb(0%,0%,0%);fill-opacity:1;" d="M 30.089844 25.324219 C 30.089844 26.324219 29.273438 27.140625 28.273438 27.140625 C 27.273438 27.140625 26.453125 26.324219 26.453125 25.324219 C 26.453125 24.324219 27.273438 23.507812 28.273438 23.507812 C 29.273438 23.507812 30.089844 24.324219 30.089844 25.324219 "/>
<path style=" stroke:none;fill-rule:nonzero;fill:rgb(0%,0%,0%);fill-opacity:1;" d="M 22.816406 25.324219 C 22.816406 26.324219 22 27.140625 21 27.140625 C 20 27.140625 19.183594 26.324219 19.183594 25.324219 C 19.183594 24.324219 20 23.507812 21 23.507812 C 22 23.507812 22.816406 24.324219 22.816406 25.324219 "/>
<path style="fill:none;stroke-width:2;stroke-linecap:round;stroke-linejoin:round;stroke:rgb(10.980392%,10.980392%,10.588235%);stroke-opacity:1;stroke-miterlimit:4;" d="M 24.500781 37.100437 C 26.601953 37.900887 28.6 37.900887 30.499219 37.100437 " transform="matrix(0.909091,0,0,0.907692,0,0)"/>
<path style="fill:none;stroke-width:1;stroke-linecap:round;stroke-linejoin:round;stroke:rgb(54.901961%,54.901961%,54.901961%);stroke-opacity:1;stroke-miterlimit:10;" d="M 16.199219 27.301377 L 18.201563 27.301377 " transform="matrix(0.909091,0,0,0.907692,0,0)"/>
<path style="fill:none;stroke-width:1;stroke-linecap:round;stroke-linejoin:round;stroke:rgb(54.901961%,54.901961%,54.901961%);stroke-opacity:1;stroke-miterlimit:10;" d="M 36.201172 27.198093 L 38.199219 27.198093 " transform="matrix(0.909091,0,0,0.907692,0,0)"/>
<path style="fill:none;stroke-width:2;stroke-linecap:round;stroke-linejoin:round;stroke:rgb(1.176471%,1.568627%,1.568627%);stroke-opacity:1;stroke-miterlimit:4;" d="M 8.301563 63.898305 L 8.301563 54.899695 C 8.301563 49.899033 13.298828 45.901086 18.300391 45.901086 C 24.298828 50.901748 30.301563 50.901748 36.3 45.901086 C 41.301563 45.901086 46.298828 49.899033 46.298828 54.899695 L 46.298828 63.898305 " transform="matrix(0.909091,0,0,0.907692,0,0)"/>
<path style="fill:none;stroke-width:1;stroke-linecap:round;stroke-linejoin:round;stroke:rgb(0%,0%,0%);stroke-opacity:1;stroke-miterlimit:10;" d="M 19.499219 24.598782 L 21.101953 24.000596 C 21.101953 24.000596 23.499609 23.50139 24.999219 24.000596 " transform="matrix(0.909091,0,0,0.907692,0,0)"/>
<path style="fill:none;stroke-width:1;stroke-linecap:round;stroke-linejoin:round;stroke:rgb(0%,0%,0%);stroke-opacity:1;stroke-miterlimit:10;" d="M 34.701563 24.598782 L 33.098828 24.000596 C 33.098828 24.000596 30.701172 23.50139 29.201563 24.000596 " transform="matrix(0.909091,0,0,0.907692,0,0)"/>
<path style="fill:none;stroke-width:2;stroke-linecap:butt;stroke-linejoin:round;stroke:rgb(10.980392%,10.980392%,10.588235%);stroke-opacity:1;stroke-miterlimit:4;" d="M 27.5 10.100305 C 40.498047 10.100305 39.501172 21.401284 38.899609 29.100238 C 38.298047 36.898173 34.701563 42.798265 27.5 42.798265 C 20.298438 42.798265 16.598828 36.799192 16.100391 29.100238 C 15.498828 21.401284 14.501953 10.100305 27.5 10.100305 " transform="matrix(0.909091,0,0,0.907692,0,0)"/>
<path style="fill-rule:nonzero;fill:rgb(64.313725%,47.45098%,21.960784%);fill-opacity:1;stroke-width:1;stroke-linecap:round;stroke-linejoin:round;stroke:rgb(64.313725%,47.45098%,21.960784%);stroke-opacity:1;stroke-miterlimit:4;" d="M 30.301563 57.701271 L 27.800781 60.300583 L 31.9 60.300583 C 32.200781 60.300583 32.398438 60.098318 32.398438 59.801377 L 32.398438 58.200477 C 32.398438 57.899232 32.200781 57.701271 31.9 57.701271 L 30.301563 57.701271 " transform="matrix(0.909091,0,0,0.907692,0,0)"/>
<path style=" stroke:none;fill-rule:nonzero;fill:rgb(64.313725%,47.45098%,21.960784%);fill-opacity:1;" d="M 23.816406 54.734375 L 20.089844 54.734375 C 19.816406 54.734375 19.636719 54.550781 19.636719 54.28125 L 19.636719 52.828125 C 19.636719 52.554688 19.816406 52.375 20.089844 52.375 L 21.546875 52.375 Z M 23.816406 54.734375 "/>
<path style=" stroke:none;fill-rule:nonzero;fill:rgb(95.686275%,66.27451%,25.490196%);fill-opacity:1;" d="M 23.816406 54.734375 L 19.816406 54.734375 C 19.546875 54.734375 19.363281 54.914062 19.363281 55.1875 L 19.363281 56.550781 C 19.363281 56.820312 19.546875 57.003906 19.816406 57.003906 L 29.089844 57.003906 C 29.363281 57.003906 29.546875 56.820312 29.546875 56.550781 L 29.546875 55.1875 C 29.546875 54.914062 29.363281 54.734375 29.089844 54.734375 L 25.183594 54.734375 "/>
<path style=" stroke:none;fill-rule:nonzero;fill:rgb(88.235294%,43.529412%,12.54902%);fill-opacity:1;" d="M 27.183594 54.734375 L 29.183594 54.734375 C 29.453125 54.734375 29.636719 54.914062 29.636719 55.1875 L 29.636719 56.550781 C 29.636719 56.820312 29.453125 57.003906 29.183594 57.003906 L 27.183594 57.003906 C 27.183594 56.914062 27.183594 54.734375 27.183594 54.734375 Z M 27.183594 54.734375 "/>
<path style=" stroke:none;fill-rule:nonzero;fill:rgb(95.686275%,66.27451%,25.490196%);fill-opacity:1;" d="M 29.636719 51.921875 C 29.636719 52.191406 29.453125 52.375 29.183594 52.375 L 19.910156 52.375 C 19.636719 52.375 19.453125 52.191406 19.453125 51.921875 C 19.816406 49.378906 21.910156 47.472656 24.546875 47.472656 C 27.183594 47.472656 29.273438 49.378906 29.636719 51.921875 "/>
<path style=" stroke:none;fill-rule:nonzero;fill:rgb(88.235294%,43.529412%,12.54902%);fill-opacity:1;" d="M 25.910156 47.652344 C 26.546875 48.832031 27.089844 50.375 27.273438 52.375 L 29.273438 52.375 C 29.546875 52.375 29.726562 52.191406 29.726562 51.921875 C 29.273438 49.378906 27.273438 47.925781 25.910156 47.652344 "/>
<path style=" stroke:none;fill-rule:nonzero;fill:rgb(98.431373%,91.764706%,18.039216%);fill-opacity:1;" d="M 27.636719 52.375 L 21.453125 52.375 L 24.546875 55.460938 Z M 27.636719 52.375 "/>
<path style="fill-rule:nonzero;fill:rgb(41.568627%,27.45098%,18.431373%);fill-opacity:1;stroke-width:1;stroke-linecap:round;stroke-linejoin:round;stroke:rgb(64.313725%,47.45098%,21.960784%);stroke-opacity:1;stroke-miterlimit:4;" d="M 29.901953 57.701271 L 29.901953 60.300583 L 31.9 60.300583 C 32.200781 60.300583 32.398438 60.098318 32.398438 59.801377 L 32.398438 58.200477 C 32.398438 57.899232 32.200781 57.701271 31.9 57.701271 L 30.301563 57.701271 " transform="matrix(0.909091,0,0,0.907692,0,0)"/>
<path style="fill:none;stroke-width:1;stroke-linecap:round;stroke-linejoin:round;stroke:rgb(0%,0%,0%);stroke-opacity:1;stroke-miterlimit:10;" d="M 26.198047 60.300583 L 22.098828 60.300583 C 21.798047 60.300583 21.600391 60.098318 21.600391 59.801377 L 21.600391 58.200477 C 21.600391 57.899232 21.798047 57.701271 22.098828 57.701271 L 31.9 57.701271 C 32.200781 57.701271 32.398438 57.899232 32.398438 58.200477 L 32.398438 59.801377 C 32.398438 60.098318 32.200781 60.300583 31.9 60.300583 L 27.800781 60.300583 " transform="matrix(0.909091,0,0,0.907692,0,0)"/>
<path style="fill:none;stroke-width:1;stroke-linecap:round;stroke-linejoin:round;stroke:rgb(0%,0%,0%);stroke-opacity:1;stroke-miterlimit:10;" d="M 26.198047 60.300583 L 21.798047 60.300583 C 21.501563 60.300583 21.299609 60.498543 21.299609 60.799788 L 21.299609 62.301708 C 21.299609 62.598649 21.501563 62.800914 21.798047 62.800914 L 31.998828 62.800914 C 32.299609 62.800914 32.501563 62.598649 32.501563 62.301708 L 32.501563 60.799788 C 32.501563 60.498543 32.299609 60.300583 31.998828 60.300583 L 27.701953 60.300583 " transform="matrix(0.909091,0,0,0.907692,0,0)"/>
<path style="fill:none;stroke-width:1;stroke-linecap:round;stroke-linejoin:round;stroke:rgb(0%,0%,0%);stroke-opacity:1;stroke-miterlimit:10;" d="M 32.600391 57.202066 C 32.600391 57.499007 32.398438 57.701271 32.101953 57.701271 L 21.901172 57.701271 C 21.600391 57.701271 21.398438 57.499007 21.398438 57.202066 C 21.798047 54.40049 24.101172 52.300384 27.001563 52.300384 C 29.901953 52.300384 32.200781 54.40049 32.600391 57.202066 Z M 32.600391 57.202066 " transform="matrix(0.909091,0,0,0.907692,0,0)"/>
<path style="fill:none;stroke-width:1;stroke-linecap:round;stroke-linejoin:round;stroke:rgb(0%,0%,0%);stroke-opacity:1;stroke-miterlimit:10;" d="M 30.400391 57.701271 L 23.598438 57.701271 L 27.001563 61.101033 Z M 30.400391 57.701271 " transform="matrix(0.909091,0,0,0.907692,0,0)"/>
<path style="fill:none;stroke-width:1;stroke-linecap:round;stroke-linejoin:round;stroke:rgb(54.901961%,54.901961%,54.901961%);stroke-opacity:1;stroke-miterlimit:10;" d="M 25.699609 27.800583 C 25.600781 29.999669 24.401953 30.8991 22.201953 30.8991 C 20.001953 30.8991 18.201563 29.599444 18.201563 27.400358 C 18.201563 26.401947 18.300391 25.700477 18.300391 25.700477 C 19.000781 24.999007 20.998828 24.999007 22.098828 24.999007 C 23.400781 24.999007 25.699609 25.201271 25.699609 25.201271 C 25.699609 25.201271 25.798438 26.698888 25.699609 27.800583 Z M 25.699609 27.800583 " transform="matrix(0.909091,0,0,0.907692,0,0)"/>
<path style="fill:none;stroke-width:1;stroke-linecap:round;stroke-linejoin:round;stroke:rgb(54.901961%,54.901961%,54.901961%);stroke-opacity:1;stroke-miterlimit:10;" d="M 28.200391 27.800583 C 28.299219 29.999669 29.498047 30.8991 31.698047 30.8991 C 33.898047 30.8991 35.698438 29.599444 35.698438 27.400358 C 35.698438 26.401947 35.599609 25.700477 35.599609 25.700477 C 34.899219 24.999007 32.901172 24.999007 31.801172 24.999007 C 30.499219 24.999007 28.200391 25.201271 28.200391 25.201271 C 28.200391 25.201271 28.200391 26.698888 28.200391 27.800583 Z M 28.200391 27.800583 " transform="matrix(0.909091,0,0,0.907692,0,0)"/>
</g>
</svg>
