<?xml version="1.0" encoding="UTF-8"?>
<svg xmlns="http://www.w3.org/2000/svg" xmlns:xlink="http://www.w3.org/1999/xlink" width="50px" height="px" viewBox="0 0 50 59" version="1.1">
<g id="surface1">
<path style=" stroke:none;fill-rule:nonzero;fill:rgb(24.705882%,24.705882%,24.705882%);fill-opacity:1;" d="M 41.910156 59 C 41.363281 59 41.910156 49.832031 41.910156 49.832031 C 41.910156 45.746094 36.910156 41.84375 33.089844 41.753906 C 27.453125 46.292969 22.089844 46.292969 16.453125 41.753906 C 12.636719 41.933594 7.453125 44.839844 7.453125 48.832031 C 7.453125 48.832031 7.816406 59 7.363281 59 "/>
<path style=" stroke:none;fill-rule:nonzero;fill:rgb(0%,0%,0%);fill-opacity:1;" d="M 33.089844 42.207031 C 30.183594 44.113281 28.636719 44.929688 25 45.476562 C 36.910156 45.839844 37.183594 55.277344 37.910156 58.910156 L 42.546875 58.910156 C 42.453125 58.910156 44 42.207031 33.089844 42.207031 "/>
<path style="fill:none;stroke-width:2;stroke-linecap:round;stroke-linejoin:round;stroke:rgb(1.176471%,1.568627%,1.568627%);stroke-opacity:1;stroke-miterlimit:4;" d="M 8.099609 64.001589 L 8.099609 54.998676 C 8.099609 49.998014 13.101172 46.000066 18.098438 46.000066 C 24.101172 51.000728 30.099609 51.000728 36.098047 46.000066 C 41.099609 46.000066 46.101172 49.998014 46.101172 54.998676 L 46.101172 64.001589 " transform="matrix(0.909091,0,0,0.907692,0,0)"/>
<path style=" stroke:none;fill-rule:nonzero;fill:rgb(10.980392%,10.980392%,10.588235%);fill-opacity:1;" d="M 30.453125 25.324219 C 30.453125 26.324219 29.636719 27.140625 28.636719 27.140625 C 27.636719 27.140625 26.816406 26.324219 26.816406 25.324219 C 26.816406 24.324219 27.636719 23.507812 28.636719 23.507812 C 29.636719 23.507812 30.453125 24.324219 30.453125 25.324219 "/>
<path style=" stroke:none;fill-rule:nonzero;fill:rgb(10.980392%,10.980392%,10.588235%);fill-opacity:1;" d="M 23.183594 25.324219 C 23.183594 26.324219 22.363281 27.140625 21.363281 27.140625 C 20.363281 27.140625 19.546875 26.324219 19.546875 25.324219 C 19.546875 24.324219 20.363281 23.507812 21.363281 23.507812 C 22.363281 23.507812 23.183594 24.324219 23.183594 25.324219 "/>
<path style=" stroke:none;fill-rule:nonzero;fill:rgb(100%,90.980392%,73.72549%);fill-opacity:1;" d="M 13.910156 25.777344 C 13.816406 33.039062 18.910156 39.304688 25.273438 39.304688 C 31.726562 39.304688 34.089844 33.675781 35.363281 26.59375 C 36.183594 21.785156 32.273438 12.164062 32.089844 12.433594 C 23.453125 5.175781 20.183594 10.347656 16.636719 14.523438 C 16.546875 14.613281 13.910156 21.238281 13.910156 25.777344 "/>
<path style=" stroke:none;fill-rule:nonzero;fill:rgb(0%,0%,0%);fill-opacity:1;" d="M 30.453125 25.324219 C 30.453125 26.324219 29.636719 27.140625 28.636719 27.140625 C 27.636719 27.140625 26.816406 26.324219 26.816406 25.324219 C 26.816406 24.324219 27.636719 23.507812 28.636719 23.507812 C 29.636719 23.507812 30.453125 24.324219 30.453125 25.324219 "/>
<path style=" stroke:none;fill-rule:nonzero;fill:rgb(0%,0%,0%);fill-opacity:1;" d="M 23.183594 25.324219 C 23.183594 26.324219 22.363281 27.140625 21.363281 27.140625 C 20.363281 27.140625 19.546875 26.324219 19.546875 25.324219 C 19.546875 24.324219 20.363281 23.507812 21.363281 23.507812 C 22.363281 23.507812 23.183594 24.324219 23.183594 25.324219 "/>
<path style="fill:none;stroke-width:2;stroke-linecap:round;stroke-linejoin:round;stroke:rgb(10.980392%,10.980392%,10.588235%);stroke-opacity:1;stroke-miterlimit:4;" d="M 24.500781 37.199417 C 26.601953 37.999868 28.6 37.999868 30.499219 37.199417 " transform="matrix(0.909091,0,0,0.907692,0,0)"/>
<path style="fill:none;stroke-width:1;stroke-linecap:round;stroke-linejoin:round;stroke:rgb(80%,60%,40%);stroke-opacity:1;stroke-miterlimit:10;" d="M 19.898828 24.598782 L 21.501563 24.000596 C 21.501563 24.000596 23.899219 23.50139 25.398828 24.099576 " transform="matrix(0.909091,0,0,0.907692,0,0)"/>
<path style="fill:none;stroke-width:1;stroke-linecap:round;stroke-linejoin:round;stroke:rgb(80%,60%,40%);stroke-opacity:1;stroke-miterlimit:10;" d="M 35.2 24.598782 L 33.498438 24.000596 C 33.498438 24.000596 31.100781 23.50139 29.601172 24.099576 " transform="matrix(0.909091,0,0,0.907692,0,0)"/>
<path style="fill:none;stroke-width:2;stroke-linecap:butt;stroke-linejoin:round;stroke:rgb(10.980392%,10.980392%,10.588235%);stroke-opacity:1;stroke-miterlimit:4;" d="M 38.5 24.598782 C 38.598828 28.200808 38.298047 34.00192 36.798438 37.199417 C 34.899219 41.201668 32.101953 42.901549 27.598828 42.901549 C 23.998047 42.901549 19.400391 39.902013 17.900781 36.299987 C 16.298047 32.40102 15.898438 27.899563 15.898438 24.099576 C 15.898438 18.801973 19.499219 10.100305 27.998438 10.100305 C 35.599609 10.199285 38.401172 20.200609 38.5 24.598782 Z M 38.5 24.598782 " transform="matrix(0.909091,0,0,0.907692,0,0)"/>
<path style="fill:none;stroke-width:1.0001;stroke-linecap:round;stroke-linejoin:miter;stroke:rgb(98.823529%,91.764706%,16.862745%);stroke-opacity:1;stroke-miterlimit:4;" d="M 24.801563 59.801377 C 24.801563 61.346332 23.546875 62.598649 22 62.598649 C 20.453125 62.598649 19.198438 61.346332 19.198438 59.801377 C 19.198438 58.252119 20.453125 56.999801 22 56.999801 C 23.546875 56.999801 24.801563 58.252119 24.801563 59.801377 Z M 24.801563 59.801377 " transform="matrix(0.909091,0,0,0.907692,0,0)"/>
<path style="fill:none;stroke-width:1.0001;stroke-linecap:round;stroke-linejoin:miter;stroke:rgb(98.823529%,91.764706%,16.862745%);stroke-opacity:1;stroke-miterlimit:4;" d="M 35.801563 59.801377 C 35.801563 61.346332 34.546875 62.598649 33 62.598649 C 31.453125 62.598649 30.198438 61.346332 30.198438 59.801377 C 30.198438 58.252119 31.453125 56.999801 33 56.999801 C 34.546875 56.999801 35.801563 58.252119 35.801563 59.801377 Z M 35.801563 59.801377 " transform="matrix(0.909091,0,0,0.907692,0,0)"/>
<path style="fill:none;stroke-width:1;stroke-linecap:round;stroke-linejoin:round;stroke:rgb(98.823529%,91.764706%,16.862745%);stroke-opacity:1;stroke-miterlimit:4;" d="M 30.000781 55.20094 L 25.398828 55.20094 C 25.3 55.20094 25.201172 55.299921 25.3 55.398901 L 27.001563 59.198888 C 27.100391 59.297868 27.199219 59.297868 27.298047 59.198888 L 30.499219 55.601165 C 30.598047 55.497881 30.598047 55.299921 30.598047 55.20094 L 29.901953 53.402079 " transform="matrix(0.909091,0,0,0.907692,0,0)"/>
<path style="fill:none;stroke-width:1;stroke-linecap:round;stroke-linejoin:miter;stroke:rgb(98.823529%,91.764706%,16.862745%);stroke-opacity:1;stroke-miterlimit:4;" d="M 23.800391 53.501059 L 25.798438 53.501059 " transform="matrix(0.909091,0,0,0.907692,0,0)"/>
</g>
</svg>
