<?xml version="1.0" encoding="UTF-8"?>
<svg xmlns="http://www.w3.org/2000/svg" xmlns:xlink="http://www.w3.org/1999/xlink" width="50px" height="px" viewBox="0 0 50 59" version="1.1">
<g id="surface1">
<path style=" stroke:none;fill-rule:nonzero;fill:rgb(0%,0%,0%);fill-opacity:1;" d="M 15.453125 30.679688 C 11.636719 15.066406 17 9.347656 25 9.347656 C 34.089844 9.347656 39.089844 15.976562 35.089844 30.136719 "/>
<path style=" stroke:none;fill-rule:nonzero;fill:rgb(10.980392%,10.980392%,10.588235%);fill-opacity:1;" d="M 30.363281 25.324219 C 30.363281 26.324219 29.546875 27.140625 28.546875 27.140625 C 27.546875 27.140625 26.726562 26.324219 26.726562 25.324219 C 26.726562 24.324219 27.546875 23.507812 28.546875 23.507812 C 29.546875 23.507812 30.363281 24.324219 30.363281 25.324219 "/>
<path style=" stroke:none;fill-rule:nonzero;fill:rgb(10.980392%,10.980392%,10.588235%);fill-opacity:1;" d="M 23.089844 25.324219 C 23.089844 26.324219 22.273438 27.140625 21.273438 27.140625 C 20.273438 27.140625 19.453125 26.324219 19.453125 25.324219 C 19.453125 24.324219 20.273438 23.507812 21.273438 23.507812 C 22.273438 23.507812 23.089844 24.324219 23.089844 25.324219 "/>
<path style=" stroke:none;fill-rule:nonzero;fill:rgb(89.411765%,68.235294%,40.392157%);fill-opacity:1;" d="M 14.910156 26.230469 C 14.816406 33.492188 18.636719 38.941406 24.910156 38.941406 C 31.363281 38.941406 35 33.492188 35 26.230469 C 35 21.695312 32.273438 17.15625 32.273438 17.15625 C 25 17.15625 23.183594 19.878906 17.726562 18.0625 C 17.726562 18.0625 15 21.695312 14.910156 26.230469 "/>
<path style=" stroke:none;fill-rule:nonzero;fill:rgb(0%,0%,0%);fill-opacity:1;" d="M 30.363281 25.324219 C 30.363281 26.324219 29.546875 27.140625 28.546875 27.140625 C 27.546875 27.140625 26.726562 26.324219 26.726562 25.324219 C 26.726562 24.324219 27.546875 23.507812 28.546875 23.507812 C 29.546875 23.507812 30.363281 24.324219 30.363281 25.324219 "/>
<path style=" stroke:none;fill-rule:nonzero;fill:rgb(0%,0%,0%);fill-opacity:1;" d="M 23.089844 25.324219 C 23.089844 26.324219 22.273438 27.140625 21.273438 27.140625 C 20.273438 27.140625 19.453125 26.324219 19.453125 25.324219 C 19.453125 24.324219 20.273438 23.507812 21.273438 23.507812 C 22.273438 23.507812 23.089844 24.324219 23.089844 25.324219 "/>
<path style="fill:none;stroke-width:2;stroke-linecap:butt;stroke-linejoin:round;stroke:rgb(0%,0%,0%);stroke-opacity:1;stroke-miterlimit:4;" d="M 16.401172 28.897974 C 16.298047 36.898173 21.299609 42.901549 27.401172 42.901549 C 33.300781 42.901549 38.5 36.898173 38.5 28.897974 C 38.5 23.901615 35.500781 17.898239 35.500781 17.898239 C 27.5 17.898239 25.501953 20.902079 19.499219 18.900953 C 19.499219 18.900953 16.5 23.901615 16.401172 28.897974 Z M 16.401172 28.897974 " transform="matrix(0.909091,0,0,0.907692,0,0)"/>
<path style="fill:none;stroke-width:2;stroke-linecap:round;stroke-linejoin:round;stroke:rgb(0%,0%,0%);stroke-opacity:1;stroke-miterlimit:4;" d="M 23.998047 35.899762 C 25.3 37.698623 29.498047 37.599642 30.898828 35.899762 " transform="matrix(0.909091,0,0,0.907692,0,0)"/>
<path style="fill:none;stroke-width:2;stroke-linecap:round;stroke-linejoin:round;stroke:rgb(0%,0%,0%);stroke-opacity:1;stroke-miterlimit:10;" d="M 16.401172 32.000794 C 12.301953 17.898239 19.000781 10.199285 27.800781 10.199285 C 37.799609 10.199285 42.599219 16.499603 38.298047 32.099775 " transform="matrix(0.909091,0,0,0.907692,0,0)"/>
<path style=" stroke:none;fill-rule:nonzero;fill:rgb(0%,0%,0%);fill-opacity:1;" d="M 21.910156 7.535156 C 21.816406 7.714844 15.910156 10.167969 16.910156 12.617188 C 17.546875 14.25 16.910156 15.25 17.726562 15.613281 C 19.910156 16.519531 29.636719 14.433594 30.363281 14.25 C 32.273438 13.976562 31.183594 13.617188 30 13.253906 C 27.183594 12.164062 27.183594 12.164062 25.363281 11.527344 C 23.546875 10.710938 22.816406 7.988281 21.910156 7.535156 "/>
<path style="fill:none;stroke-width:2;stroke-linecap:round;stroke-linejoin:round;stroke:rgb(0%,0%,0%);stroke-opacity:1;stroke-miterlimit:10;" d="M 35.500781 17.898239 C 34.800391 13.801311 29.901953 13.302105 27.899609 12.501655 C 26.000391 11.800185 24.900391 9.200874 23.899219 8.701668 C 23.800391 8.899629 19.701172 10.199285 18.601172 12.798596 C 18.098438 14.098252 19.499219 17.601298 19.499219 18.801973 " transform="matrix(0.909091,0,0,0.907692,0,0)"/>
<path style=" stroke:none;fill-rule:nonzero;fill:rgb(89.019608%,47.058824%,38.039216%);fill-opacity:1;" d="M 42 59 C 41.453125 59 42 49.832031 42 49.832031 C 42 45.746094 37 41.84375 33.183594 41.753906 C 27.636719 46.292969 22.273438 46.292969 16.546875 41.753906 C 12.726562 41.933594 7.546875 44.839844 7.546875 48.832031 C 7.546875 48.832031 8 59 7.453125 59 "/>
<path style=" stroke:none;fill-rule:nonzero;fill:rgb(80.392157%,30.196078%,25.490196%);fill-opacity:1;" d="M 33.273438 42.207031 C 30.363281 44.113281 28.816406 44.929688 25.183594 45.476562 C 37.089844 45.839844 37.089844 55.824219 37.726562 59.453125 L 42.363281 59.453125 C 42.363281 59.453125 44.183594 42.207031 33.273438 42.207031 "/>
<path style="fill:none;stroke-width:2;stroke-linecap:round;stroke-linejoin:round;stroke:rgb(1.176471%,1.568627%,1.568627%);stroke-opacity:1;stroke-miterlimit:4;" d="M 8.198438 64.001589 L 8.198438 54.998676 C 8.198438 49.998014 13.2 46.000066 18.201563 46.000066 C 24.2 51.000728 30.198438 51.000728 36.201172 46.000066 C 41.198438 46.000066 46.2 49.998014 46.2 54.998676 L 46.2 64.001589 " transform="matrix(0.909091,0,0,0.907692,0,0)"/>
<path style="fill:none;stroke-width:1;stroke-linecap:round;stroke-linejoin:round;stroke:rgb(0%,0%,0%);stroke-opacity:1;stroke-miterlimit:10;" d="M 20.001953 24.400821 L 21.600391 23.798332 C 21.600391 23.798332 23.998047 23.299126 25.501953 23.798332 " transform="matrix(0.909091,0,0,0.907692,0,0)"/>
<path style="fill:none;stroke-width:1;stroke-linecap:round;stroke-linejoin:round;stroke:rgb(0%,0%,0%);stroke-opacity:1;stroke-miterlimit:10;" d="M 35.2 24.400821 L 33.601562 23.798332 C 33.601562 23.798332 31.199609 23.299126 29.7 23.798332 " transform="matrix(0.909091,0,0,0.907692,0,0)"/>
</g>
</svg>
