<?xml version="1.0" encoding="UTF-8"?>
<svg xmlns="http://www.w3.org/2000/svg" xmlns:xlink="http://www.w3.org/1999/xlink" width="50px" height="px" viewBox="0 0 50 59" version="1.1">
<g id="surface1">
<path style=" stroke:none;fill-rule:nonzero;fill:rgb(0%,0%,0%);fill-opacity:1;" d="M 15.816406 32.675781 C 14.089844 26.414062 14.089844 24.78125 13.183594 19.515625 C 12.183594 14.25 16.726562 9.078125 24.363281 9.078125 C 32 9.078125 35.089844 14.25 35.089844 19.695312 C 34.089844 25.6875 34.636719 26.777344 32.910156 32.675781 "/>
<path style=" stroke:none;fill-rule:nonzero;fill:rgb(10.980392%,10.980392%,10.588235%);fill-opacity:1;" d="M 29.636719 25.597656 C 29.636719 26.59375 28.816406 27.414062 27.816406 27.414062 C 26.816406 27.414062 26 26.59375 26 25.597656 C 26 24.597656 26.816406 23.78125 27.816406 23.78125 C 28.816406 23.78125 29.636719 24.597656 29.636719 25.597656 "/>
<path style=" stroke:none;fill-rule:nonzero;fill:rgb(10.980392%,10.980392%,10.588235%);fill-opacity:1;" d="M 22.363281 25.597656 C 22.363281 26.59375 21.546875 27.414062 20.546875 27.414062 C 19.546875 27.414062 18.726562 26.59375 18.726562 25.597656 C 18.726562 24.597656 19.546875 23.78125 20.546875 23.78125 C 21.546875 23.78125 22.363281 24.597656 22.363281 25.597656 "/>
<path style=" stroke:none;fill-rule:nonzero;fill:rgb(100%,90.980392%,73.72549%);fill-opacity:1;" d="M 14.273438 26.503906 C 14.183594 33.765625 18 39.210938 24.273438 39.210938 C 30.726562 39.210938 34.363281 33.765625 34.363281 26.503906 C 34.363281 21.964844 31.636719 17.425781 31.636719 17.425781 C 24.363281 17.425781 23.726562 17.15625 18.273438 15.339844 C 18.273438 15.339844 14.363281 21.964844 14.273438 26.503906 "/>
<path style=" stroke:none;fill-rule:nonzero;fill:rgb(0%,0%,0%);fill-opacity:1;" d="M 29.636719 25.597656 C 29.636719 26.59375 28.816406 27.414062 27.816406 27.414062 C 26.816406 27.414062 26 26.59375 26 25.597656 C 26 24.597656 26.816406 23.78125 27.816406 23.78125 C 28.816406 23.78125 29.636719 24.597656 29.636719 25.597656 "/>
<path style=" stroke:none;fill-rule:nonzero;fill:rgb(0%,0%,0%);fill-opacity:1;" d="M 22.363281 25.597656 C 22.363281 26.59375 21.546875 27.414062 20.546875 27.414062 C 19.546875 27.414062 18.726562 26.59375 18.726562 25.597656 C 18.726562 24.597656 19.546875 23.78125 20.546875 23.78125 C 21.546875 23.78125 22.363281 24.597656 22.363281 25.597656 "/>
<path style="fill:none;stroke-width:2;stroke-linecap:butt;stroke-linejoin:round;stroke:rgb(0%,0%,0%);stroke-opacity:1;stroke-miterlimit:4;" d="M 15.700781 29.199219 C 15.601953 37.199417 20.599219 43.19849 26.700781 43.19849 C 32.600391 43.19849 37.799609 37.199417 37.799609 29.199219 C 37.799609 24.198557 35.101172 15.100967 35.101172 15.100967 C 27.100391 15.100967 26.099219 18.900953 20.100781 16.899828 C 20.100781 16.899828 15.799609 24.198557 15.700781 29.199219 Z M 15.700781 29.199219 " transform="matrix(0.909091,0,0,0.907692,0,0)"/>
<path style="fill:none;stroke-width:2;stroke-linecap:round;stroke-linejoin:round;stroke:rgb(0%,0%,0%);stroke-opacity:1;stroke-miterlimit:4;" d="M 23.598438 36.898173 C 25.699609 37.698623 27.701953 37.698623 29.601172 36.898173 " transform="matrix(0.909091,0,0,0.907692,0,0)"/>
<path style="fill-rule:nonzero;fill:rgb(0%,0%,0%);fill-opacity:1;stroke-width:1;stroke-linecap:round;stroke-linejoin:round;stroke:rgb(0%,0%,0%);stroke-opacity:1;stroke-miterlimit:10;" d="M 26.601953 38.800318 L 24.900391 40.698159 L 17.698828 37.001457 C 16.998438 37.001457 25.501953 51.000728 35.801563 37.199417 L 28.299219 40.801443 Z M 26.601953 38.800318 " transform="matrix(0.909091,0,0,0.907692,0,0)"/>
<path style=" stroke:none;fill-rule:nonzero;fill:rgb(100%,100%,100%);fill-opacity:1;" d="M 41.089844 59 C 40.546875 59 41.089844 49.832031 41.089844 49.832031 C 41.089844 45.746094 36.089844 41.84375 32.273438 41.753906 C 26.636719 46.292969 21.273438 46.203125 15.636719 41.664062 C 11.816406 41.84375 6.636719 44.75 6.636719 48.742188 C 6.636719 48.742188 7 58.910156 6.546875 58.910156 "/>
<path style=" stroke:none;fill-rule:nonzero;fill:rgb(84.313725%,84.705882%,87.058824%);fill-opacity:1;" d="M 32.363281 42.207031 C 29.453125 44.113281 27.910156 44.929688 24.273438 45.476562 C 36.183594 45.839844 36.183594 55.824219 36.816406 59.453125 L 41.453125 59.453125 C 41.453125 59.453125 43.273438 42.207031 32.363281 42.207031 "/>
<path style="fill:none;stroke-width:2;stroke-linecap:round;stroke-linejoin:round;stroke:rgb(1.176471%,1.568627%,1.568627%);stroke-opacity:1;stroke-miterlimit:4;" d="M 7.201563 63.898305 L 7.201563 54.899695 C 7.201563 49.899033 12.198828 45.901086 17.200391 45.901086 C 23.198828 50.901748 29.201563 50.901748 35.2 45.901086 C 40.201563 45.901086 45.198828 49.899033 45.198828 54.899695 L 45.198828 63.898305 " transform="matrix(0.909091,0,0,0.907692,0,0)"/>
<path style="fill:none;stroke-width:1;stroke-linecap:round;stroke-linejoin:round;stroke:rgb(0%,0%,0%);stroke-opacity:1;stroke-miterlimit:10;" d="M 19.099609 24.400821 L 20.698047 23.798332 C 20.698047 23.798332 23.1 23.299126 24.599609 23.798332 " transform="matrix(0.909091,0,0,0.907692,0,0)"/>
<path style="fill:none;stroke-width:1;stroke-linecap:round;stroke-linejoin:round;stroke:rgb(0%,0%,0%);stroke-opacity:1;stroke-miterlimit:10;" d="M 34.301953 24.400821 L 32.699219 23.798332 C 32.699219 23.798332 30.301563 23.299126 28.801953 23.798332 " transform="matrix(0.909091,0,0,0.907692,0,0)"/>
<path style=" stroke:none;fill-rule:nonzero;fill:rgb(80.392157%,30.196078%,25.490196%);fill-opacity:1;" d="M 34.363281 26.503906 C 33.910156 25.6875 42.636719 10.984375 24.273438 11.347656 C 8.546875 11.617188 12.816406 24.960938 14.273438 26.503906 C 14.726562 24.144531 13.453125 16.339844 24.183594 17.246094 C 36 18.335938 33.910156 25.6875 34.363281 26.503906 "/>
<path style=" stroke:none;fill-rule:nonzero;fill:rgb(80.392157%,30.196078%,25.490196%);fill-opacity:1;" d="M 34.363281 15.066406 C 34 14.613281 34 8.167969 24.273438 8.167969 C 15.453125 8.167969 15.183594 13.617188 14.453125 14.613281 C 15.183594 13.707031 17 10.800781 24.273438 10.800781 C 31.726562 10.710938 34 14.613281 34.363281 15.066406 "/>
<path style="fill:none;stroke-width:2;stroke-linecap:round;stroke-linejoin:round;stroke:rgb(10.980392%,10.980392%,10.588235%);stroke-opacity:1;stroke-miterlimit:4;" d="M 37.799609 29.999669 C 39.999609 26.401947 42.9 12.501655 26.799609 12.501655 C 9.998828 12.501655 13.698438 28.897974 15.799609 30.597855 C 15.099219 27.099113 14.901563 18.999934 26.700781 18.999934 C 38.998438 18.999934 37.301172 29.199219 37.799609 29.999669 Z M 37.799609 29.999669 " transform="matrix(0.909091,0,0,0.907692,0,0)"/>
<path style="fill:none;stroke-width:2;stroke-linecap:round;stroke-linejoin:round;stroke:rgb(10.980392%,10.980392%,10.588235%);stroke-opacity:1;stroke-miterlimit:4;" d="M 16.598828 16.099378 C 20.599219 4.798398 34.301953 5.999073 37.700781 16.598583 " transform="matrix(0.909091,0,0,0.907692,0,0)"/>
<path style=" stroke:none;fill-rule:nonzero;fill:rgb(0%,0%,0%);fill-opacity:1;" d="M 25.453125 31.496094 L 29 31.585938 C 29.453125 31.585938 25.726562 26.140625 19 31.585938 L 23.183594 31.496094 Z M 25.453125 31.496094 "/>
<path style="fill:none;stroke-width:1;stroke-linecap:round;stroke-linejoin:round;stroke:rgb(0%,0%,0%);stroke-opacity:1;stroke-miterlimit:4;" d="M 27.899609 34.699086 L 31.9 34.798067 C 32.699219 34.699086 26.4 29.001258 20.9 34.798067 L 25.398828 34.699086 Z M 27.899609 34.699086 " transform="matrix(0.909091,0,0,0.907692,0,0)"/>
</g>
</svg>
