<?xml version="1.0" encoding="UTF-8"?>
<svg xmlns="http://www.w3.org/2000/svg" xmlns:xlink="http://www.w3.org/1999/xlink" width="50px" height="px" viewBox="0 0 50 59" version="1.1">
<g id="surface1">
<path style=" stroke:none;fill-rule:nonzero;fill:rgb(35.294118%,36.862745%,37.254902%);fill-opacity:1;" d="M 13.453125 12.890625 C 12.273438 13.253906 8.910156 14.25 7.453125 16.519531 C 5.546875 19.332031 7.546875 22.875 12.453125 25.144531 "/>
<path style=" stroke:none;fill-rule:nonzero;fill:rgb(51.372549%,40.392157%,29.803922%);fill-opacity:1;" d="M 14 30.589844 C 10.183594 14.976562 15.546875 9.257812 23.546875 9.257812 C 32.636719 9.257812 37.636719 15.882812 33.636719 30.042969 "/>
<path style=" stroke:none;fill-rule:nonzero;fill:rgb(10.980392%,10.980392%,10.588235%);fill-opacity:1;" d="M 28.816406 25.234375 C 28.816406 26.230469 28 27.050781 27 27.050781 C 26 27.050781 25.183594 26.230469 25.183594 25.234375 C 25.183594 24.234375 26 23.417969 27 23.417969 C 28.089844 23.417969 28.816406 24.234375 28.816406 25.234375 "/>
<path style=" stroke:none;fill-rule:nonzero;fill:rgb(10.980392%,10.980392%,10.588235%);fill-opacity:1;" d="M 21.546875 25.234375 C 21.546875 26.230469 20.726562 27.050781 19.726562 27.050781 C 18.726562 27.050781 17.910156 26.230469 17.910156 25.234375 C 17.910156 24.234375 18.726562 23.417969 19.726562 23.417969 C 20.816406 23.417969 21.546875 24.234375 21.546875 25.234375 "/>
<path style=" stroke:none;fill-rule:nonzero;fill:rgb(100%,90.980392%,73.72549%);fill-opacity:1;" d="M 13.453125 26.140625 C 13.363281 33.402344 17.183594 38.847656 23.453125 38.847656 C 29.910156 38.847656 33.546875 33.402344 33.546875 26.140625 C 33.546875 21.601562 30.816406 17.066406 30.816406 17.066406 C 23.546875 17.066406 21.726562 19.789062 16.273438 17.972656 C 16.273438 17.972656 13.546875 21.601562 13.453125 26.140625 "/>
<path style=" stroke:none;fill-rule:nonzero;fill:rgb(0%,0%,0%);fill-opacity:1;" d="M 28.816406 25.234375 C 28.816406 26.230469 28 27.050781 27 27.050781 C 26 27.050781 25.183594 26.230469 25.183594 25.234375 C 25.183594 24.234375 26 23.417969 27 23.417969 C 28.089844 23.417969 28.816406 24.234375 28.816406 25.234375 "/>
<path style=" stroke:none;fill-rule:nonzero;fill:rgb(0%,0%,0%);fill-opacity:1;" d="M 21.546875 25.234375 C 21.546875 26.230469 20.726562 27.050781 19.726562 27.050781 C 18.726562 27.050781 17.910156 26.230469 17.910156 25.234375 C 17.910156 24.234375 18.726562 23.417969 19.726562 23.417969 C 20.816406 23.417969 21.546875 24.234375 21.546875 25.234375 "/>
<path style="fill:none;stroke-width:2;stroke-linecap:butt;stroke-linejoin:round;stroke:rgb(10.980392%,10.980392%,10.588235%);stroke-opacity:1;stroke-miterlimit:4;" d="M 14.798438 28.798994 C 14.699609 36.799192 19.701172 42.798265 25.798438 42.798265 C 31.698047 42.798265 36.901563 36.799192 36.901563 28.798994 C 36.901563 23.798332 33.898047 17.799258 33.898047 17.799258 C 25.901563 17.799258 23.899219 20.798795 17.900781 18.801973 C 17.900781 18.801973 14.901563 23.798332 14.798438 28.798994 Z M 14.798438 28.798994 " transform="matrix(0.909091,0,0,0.907692,0,0)"/>
<path style="fill:none;stroke-width:2;stroke-linecap:round;stroke-linejoin:round;stroke:rgb(10.980392%,10.980392%,10.588235%);stroke-opacity:1;stroke-miterlimit:4;" d="M 22.700391 37.100437 C 24.801563 37.900887 26.799609 37.900887 28.698828 37.100437 " transform="matrix(0.909091,0,0,0.907692,0,0)"/>
<path style=" stroke:none;fill-rule:nonzero;fill:rgb(51.372549%,40.392157%,29.803922%);fill-opacity:1;" d="M 24.546875 32.40625 L 30.183594 32.859375 C 30.636719 32.859375 23.273438 27.414062 16.546875 32.859375 L 22.273438 32.496094 Z M 24.546875 32.40625 "/>
<path style="fill:none;stroke-width:1;stroke-linecap:round;stroke-linejoin:round;stroke:rgb(10.980392%,10.980392%,10.588235%);stroke-opacity:1;stroke-miterlimit:4;" d="M 26.898438 35.701801 L 33.098828 36.201006 C 33.601562 36.201006 25.501953 30.201933 18.098438 36.201006 L 24.401953 35.800781 Z M 26.898438 35.701801 " transform="matrix(0.909091,0,0,0.907692,0,0)"/>
<path style="fill:none;stroke-width:2;stroke-linecap:round;stroke-linejoin:round;stroke:rgb(11.372549%,11.372549%,10.588235%);stroke-opacity:1;stroke-miterlimit:10;" d="M 14.798438 31.901814 C 10.600391 17.799258 17.299219 10.001324 26.099219 10.001324 C 36.098047 10.001324 40.901953 16.301642 36.600781 31.901814 " transform="matrix(0.909091,0,0,0.907692,0,0)"/>
<path style=" stroke:none;fill-rule:nonzero;fill:rgb(74.509804%,68.627451%,83.529412%);fill-opacity:1;" d="M 13.546875 17.15625 C 12.546875 17.425781 13.546875 4.355469 23.636719 4.355469 C 35.363281 4.355469 34.726562 16.066406 34.726562 17.15625 C 33.273438 16.972656 30.363281 16.246094 29.546875 15.339844 C 26 11.253906 31.636719 10.984375 24.183594 9.894531 C 19.453125 10.257812 21.089844 16.066406 19.546875 16.15625 C 16.816406 16.429688 14.816406 16.703125 13.546875 17.15625 "/>
<path style="fill:none;stroke-width:2;stroke-linecap:round;stroke-linejoin:round;stroke:rgb(11.372549%,11.372549%,10.588235%);stroke-opacity:1;stroke-miterlimit:10;" d="M 22.399609 17.201073 C 22.399609 16.998808 21.901172 13.302105 23.899219 11.800185 C 25.501953 10.59951 28.698828 10.401549 30.499219 11.800185 C 31.801172 12.90188 32.101953 15.600172 31.599219 17.300053 M 27.199219 17.300053 C 32.299609 17.102092 35.900391 18.401748 38.199219 18.801973 C 38.199219 17.601298 38.899609 4.699417 26.000391 4.699417 C 14.798438 4.699417 13.801563 19.197895 14.901563 18.801973 C 17.101562 18.199484 21.501563 17.601298 27.199219 17.300053 Z M 14.798438 13.900291 C 13.401953 14.300516 9.9 15.501192 8.198438 18.001523 C 5.899609 21.19902 8.301563 25.300252 14.201172 27.899563 " transform="matrix(0.909091,0,0,0.907692,0,0)"/>
<path style=" stroke:none;fill-rule:nonzero;fill:rgb(60.392157%,82.352941%,95.294118%);fill-opacity:1;" d="M 40.910156 58.910156 C 40.363281 58.910156 40.910156 49.742188 40.910156 49.742188 C 40.910156 45.65625 35.910156 41.753906 32.089844 41.664062 C 26.453125 46.203125 21.089844 46.109375 15.453125 41.574219 C 11.636719 41.753906 6.453125 44.660156 6.453125 48.652344 C 6.453125 48.652344 6.816406 58.820312 6.363281 58.820312 "/>
<path style=" stroke:none;fill-rule:nonzero;fill:rgb(32.941176%,70.588235%,89.411765%);fill-opacity:1;" d="M 32.089844 42.117188 C 29.183594 44.023438 27.636719 44.839844 24 45.382812 C 35.910156 45.746094 35.910156 55.730469 36.546875 59.363281 L 41.183594 59.363281 C 41.183594 59.363281 43 42.117188 32.089844 42.117188 "/>
<path style="fill:none;stroke-width:2;stroke-linecap:round;stroke-linejoin:round;stroke:rgb(1.176471%,1.568627%,1.568627%);stroke-opacity:1;stroke-miterlimit:4;" d="M 6.999609 63.898305 L 6.999609 54.899695 C 6.999609 49.899033 12.001172 45.901086 16.998438 45.901086 C 23.001172 50.901748 28.999609 50.901748 34.998047 45.901086 C 39.999609 45.901086 45.001172 49.899033 45.001172 54.899695 L 45.001172 63.898305 " transform="matrix(0.909091,0,0,0.907692,0,0)"/>
</g>
</svg>
