<?xml version="1.0" encoding="UTF-8"?>
<svg xmlns="http://www.w3.org/2000/svg" xmlns:xlink="http://www.w3.org/1999/xlink" width="50px" height="px" viewBox="0 0 50 59" version="1.1">
<g id="surface1">
<path style=" stroke:none;fill-rule:nonzero;fill:rgb(98.823529%,86.27451%,64.313725%);fill-opacity:1;" d="M 27.273438 8.441406 C 27.453125 8.078125 30.453125 6.535156 35.453125 6.535156 C 38.910156 6.535156 40.273438 12.34375 40 15.976562 C 39.816406 18.789062 39.546875 18.789062 39.546875 22.78125 C 39.546875 23.507812 39.636719 24.324219 39.910156 25.144531 C 40.089844 25.871094 40.636719 27.957031 42.089844 29.226562 C 40.816406 28.957031 39.183594 28.320312 37.910156 26.59375 C 36.816406 25.234375 35.546875 23.507812 34.910156 22.691406 "/>
<path style="fill:none;stroke-width:2;stroke-linecap:round;stroke-linejoin:round;stroke:rgb(0%,0%,0%);stroke-opacity:1;stroke-miterlimit:10;" d="M 30.000781 9.299854 C 30.198438 8.99861 33.898047 5.000662 38.998438 7.199748 C 44.601563 9.601099 44.201953 18.801973 44.098828 23.200146 C 44 26.599907 45.198828 29.599444 46.401953 31.398305 " transform="matrix(0.909091,0,0,0.907692,0,0)"/>
<path style=" stroke:none;fill-rule:nonzero;fill:rgb(98.823529%,86.27451%,64.313725%);fill-opacity:1;" d="M 14.726562 30.136719 C 10.910156 14.613281 16.183594 8.804688 24.183594 8.804688 C 33.273438 8.804688 38.273438 15.429688 34.273438 29.589844 "/>
<path style=" stroke:none;fill-rule:nonzero;fill:rgb(10.980392%,10.980392%,10.588235%);fill-opacity:1;" d="M 29.546875 24.78125 C 29.546875 25.777344 28.726562 26.59375 27.726562 26.59375 C 26.726562 26.59375 25.910156 25.777344 25.910156 24.78125 C 25.910156 23.78125 26.726562 22.964844 27.726562 22.964844 C 28.726562 22.964844 29.546875 23.78125 29.546875 24.78125 "/>
<path style=" stroke:none;fill-rule:nonzero;fill:rgb(10.980392%,10.980392%,10.588235%);fill-opacity:1;" d="M 22.273438 24.78125 C 22.273438 25.777344 21.453125 26.59375 20.453125 26.59375 C 19.453125 26.59375 18.636719 25.777344 18.636719 24.78125 C 18.636719 23.78125 19.453125 22.964844 20.453125 22.964844 C 21.453125 22.964844 22.273438 23.78125 22.273438 24.78125 "/>
<path style=" stroke:none;fill-rule:nonzero;fill:rgb(100%,90.980392%,73.72549%);fill-opacity:1;" d="M 14.183594 25.6875 C 14.089844 32.949219 17.910156 38.394531 24.183594 38.394531 C 30.636719 38.394531 34.273438 32.949219 34.273438 25.6875 C 34.273438 21.148438 31.546875 16.609375 31.546875 16.609375 C 24.273438 16.609375 22.453125 19.332031 17 17.519531 C 17 17.519531 14.273438 21.148438 14.183594 25.6875 "/>
<path style=" stroke:none;fill-rule:nonzero;fill:rgb(0%,0%,0%);fill-opacity:1;" d="M 29.546875 24.78125 C 29.546875 25.777344 28.726562 26.59375 27.726562 26.59375 C 26.726562 26.59375 25.910156 25.777344 25.910156 24.78125 C 25.910156 23.78125 26.726562 22.964844 27.726562 22.964844 C 28.726562 22.964844 29.546875 23.78125 29.546875 24.78125 "/>
<path style=" stroke:none;fill-rule:nonzero;fill:rgb(0%,0%,0%);fill-opacity:1;" d="M 22.273438 24.78125 C 22.273438 25.777344 21.453125 26.59375 20.453125 26.59375 C 19.453125 26.59375 18.636719 25.777344 18.636719 24.78125 C 18.636719 23.78125 19.453125 22.964844 20.453125 22.964844 C 21.453125 22.964844 22.273438 23.78125 22.273438 24.78125 "/>
<path style="fill:none;stroke-width:2;stroke-linecap:round;stroke-linejoin:round;stroke:rgb(11.372549%,11.372549%,10.588235%);stroke-opacity:1;stroke-miterlimit:10;" d="M 15.601953 31.398305 C 11.399609 17.300053 18.098438 9.601099 26.898438 9.601099 C 36.901563 9.601099 41.701172 15.901417 37.4 31.501589 " transform="matrix(0.909091,0,0,0.907692,0,0)"/>
<path style="fill:none;stroke-width:2;stroke-linecap:butt;stroke-linejoin:round;stroke:rgb(10.980392%,10.980392%,10.588235%);stroke-opacity:1;stroke-miterlimit:4;" d="M 15.601953 28.299788 C 15.498828 36.299987 20.500391 42.29906 26.601953 42.29906 C 32.501563 42.29906 37.700781 36.299987 37.700781 28.299788 C 37.700781 23.299126 34.701563 17.300053 34.701563 17.300053 C 26.700781 17.300053 24.698438 20.29959 18.7 18.298464 C 18.7 18.298464 15.700781 23.299126 15.601953 28.299788 Z M 15.601953 28.299788 " transform="matrix(0.909091,0,0,0.907692,0,0)"/>
<path style=" stroke:none;fill-rule:nonzero;fill:rgb(100%,100%,100%);fill-opacity:1;" d="M 6.726562 59 L 6.726562 50.105469 C 6.726562 45.566406 11.273438 41.933594 15.816406 41.933594 C 21.273438 46.472656 26.726562 46.472656 32.183594 41.933594 C 36.726562 41.933594 41.273438 45.566406 41.273438 50.105469 L 41.273438 59 Z M 6.726562 59 "/>
<path style=" stroke:none;fill-rule:nonzero;fill:rgb(84.313725%,84.705882%,87.058824%);fill-opacity:1;" d="M 32.546875 41.753906 C 29.636719 43.660156 28.089844 44.476562 24.453125 45.023438 C 36.273438 45.382812 36.273438 55.371094 37 59 L 41.636719 59 C 41.636719 59 43.453125 41.753906 32.546875 41.753906 "/>
<path style="fill-rule:nonzero;fill:rgb(100%,90.980392%,73.72549%);fill-opacity:1;stroke-width:2;stroke-linecap:round;stroke-linejoin:round;stroke:rgb(11.372549%,11.372549%,10.588235%);stroke-opacity:1;stroke-miterlimit:10;" d="M 19.701172 48.801642 C 19.000781 54.800715 24.698438 55.398901 26.498828 58.901947 C 28.501172 55.20094 33.498438 54.800715 33.098828 48.801642 " transform="matrix(0.909091,0,0,0.907692,0,0)"/>
<path style="fill:none;stroke-width:2;stroke-linecap:round;stroke-linejoin:round;stroke:rgb(10.980392%,10.980392%,10.588235%);stroke-opacity:1;stroke-miterlimit:4;" d="M 7.498047 64.001589 L 7.498047 54.998676 C 7.498047 49.998014 12.499609 46.000066 17.501172 46.000066 C 23.499609 51.000728 29.498047 51.000728 35.500781 46.000066 C 40.498047 46.000066 45.499609 49.998014 45.499609 54.998676 L 45.499609 64.001589 " transform="matrix(0.909091,0,0,0.907692,0,0)"/>
<path style="fill:none;stroke-width:1;stroke-linecap:round;stroke-linejoin:round;stroke:rgb(98.823529%,86.27451%,64.313725%);stroke-opacity:1;stroke-miterlimit:10;" d="M 19.400391 24.702066 C 19.400391 24.702066 20.001953 23.600371 20.500391 23.398106 C 21.398438 22.997881 22.898047 22.898901 24.401953 23.398106 " transform="matrix(0.909091,0,0,0.907692,0,0)"/>
<path style="fill:none;stroke-width:1;stroke-linecap:round;stroke-linejoin:round;stroke:rgb(98.823529%,86.27451%,64.313725%);stroke-opacity:1;stroke-miterlimit:10;" d="M 33.498438 24.702066 C 33.498438 24.702066 32.901172 23.600371 32.398438 23.398106 C 31.500391 22.997881 30.000781 22.898901 28.501172 23.398106 " transform="matrix(0.909091,0,0,0.907692,0,0)"/>
<path style="fill:none;stroke-width:2;stroke-linecap:round;stroke-linejoin:round;stroke:rgb(0%,0%,0%);stroke-opacity:1;stroke-miterlimit:4;" d="M 22.898047 35.099311 C 24.2 36.898173 28.398047 36.799192 29.798828 35.099311 " transform="matrix(0.909091,0,0,0.907692,0,0)"/>
</g>
</svg>
