<?xml version="1.0" encoding="UTF-8"?>
<svg xmlns="http://www.w3.org/2000/svg" xmlns:xlink="http://www.w3.org/1999/xlink" width="50px" height="px" viewBox="0 0 50 59" version="1.1">
<g id="surface1">
<path style=" stroke:none;fill-rule:nonzero;fill:rgb(11.372549%,11.372549%,10.588235%);fill-opacity:1;" d="M 6.816406 59 L 6.816406 50.105469 C 6.816406 45.566406 11.636719 38.578125 16.183594 38.578125 C 21.636719 43.117188 26.816406 46.472656 32.273438 41.933594 C 36.816406 41.933594 41.363281 45.566406 41.363281 50.105469 L 41.363281 59 Z M 6.816406 59 "/>
<path style=" stroke:none;fill-rule:nonzero;fill:rgb(0%,0%,0%);fill-opacity:1;" d="M 32.726562 41.753906 C 29.816406 43.660156 28.273438 44.476562 24.636719 45.023438 C 36.453125 45.382812 36.453125 55.371094 37.089844 59 L 41.816406 59 C 41.816406 59 43.636719 41.753906 32.726562 41.753906 "/>
<path style=" stroke:none;fill-rule:nonzero;fill:rgb(100%,90.980392%,73.72549%);fill-opacity:1;" d="M 18.636719 37.125 C 17.726562 47.109375 21.089844 46.835938 24.273438 51.738281 C 26.816406 45.566406 32.816406 48.199219 32.363281 38.214844 "/>
<path style="fill:none;stroke-width:2;stroke-linecap:round;stroke-linejoin:round;stroke:rgb(0%,0%,0%);stroke-opacity:1;stroke-miterlimit:4;" d="M 7.7 64.001589 L 7.7 54.998676 C 7.7 49.998014 12.800391 40.198954 17.801953 40.198954 C 18.601172 40.801443 19.8 46.198027 20.401563 48.100172 C 22.201953 53.901284 24.801563 53.501059 26.700781 56.999801 C 28.698828 53.298795 32.200781 53.001854 32.798047 46.998477 C 33 44.799391 35.2 41.300649 36.098047 40.599179 C 41.099609 40.599179 45.800391 50.101298 45.800391 54.998676 L 45.800391 64.001589 " transform="matrix(0.909091,0,0,0.907692,0,0)"/>
<path style=" stroke:none;fill-rule:nonzero;fill:rgb(59.607843%,40.392157%,7.843137%);fill-opacity:1;" d="M 27.089844 37.941406 C 30.910156 40.300781 28.816406 44.929688 30.453125 46.65625 C 34.546875 51.011719 32.726562 54.371094 31.726562 55.640625 C 36.816406 54.550781 39.453125 48.109375 39.453125 47.835938 C 40.636719 48.925781 41.546875 46.746094 44.453125 54.28125 C 44.636719 51.828125 46.726562 50.648438 44.636719 44.929688 C 43.089844 40.484375 41.273438 37.214844 40.910156 35.398438 C 37.726562 19.695312 36 8.804688 27.546875 9.257812 C 13.363281 10.074219 9.816406 14.613281 8.636719 20.605469 C 7.363281 26.59375 7.546875 36.21875 5.453125 41.664062 C 4.910156 43.023438 6.546875 45.746094 4.910156 48.742188 C 4.363281 49.742188 3.546875 51.011719 3.636719 52.917969 C 3.726562 53.917969 3.636719 55.097656 4.273438 55.1875 C 7.453125 55.730469 11.273438 45.382812 11.273438 45.382812 C 11.273438 45.382812 10.546875 52.917969 12.273438 52.917969 C 11.726562 51.921875 17.089844 51.195312 16.273438 44.75 C 15.726562 40.210938 19.183594 38.394531 21.636719 38.304688 "/>
<path style=" stroke:none;fill-rule:nonzero;fill:rgb(100%,90.980392%,73.72549%);fill-opacity:1;" d="M 15.089844 24.144531 L 15.089844 25.050781 C 15.089844 32.042969 19.363281 37.578125 24.910156 37.578125 C 30.363281 37.578125 33.816406 31.949219 33.816406 24.960938 C 33.816406 20.695312 32.726562 15.523438 28.363281 13.523438 C 22.910156 14.523438 20 15.25 17 16.792969 C 14.453125 18.0625 15.546875 23.417969 15.089844 24.144531 "/>
<path style="fill:none;stroke-width:2;stroke-linecap:round;stroke-linejoin:round;stroke:rgb(0%,0%,0%);stroke-opacity:1;stroke-miterlimit:10;" d="M 24.2 34.501126 C 25.600781 36.601231 28.398047 36.497948 30.198438 34.501126 " transform="matrix(0.909091,0,0,0.907692,0,0)"/>
<path style="fill:none;stroke-width:2;stroke-linecap:round;stroke-linejoin:round;stroke:rgb(0%,0%,0%);stroke-opacity:1;stroke-miterlimit:4;" d="M 16.199219 20.501854 L 16.199219 28.200808 C 16.199219 36.201006 21.200781 42.200079 27.199219 42.200079 C 32.901172 42.200079 37.099219 34.901351 37.000391 29.599444 C 37.000391 27.499338 36.501953 22.70094 36.501953 22.201735 " transform="matrix(0.909091,0,0,0.907692,0,0)"/>
<path style="fill:none;stroke-width:2;stroke-linecap:round;stroke-linejoin:round;stroke:rgb(0%,0%,0%);stroke-opacity:1;stroke-miterlimit:10;" d="M 49.598828 59.599113 C 51.498047 56.599576 49.401172 47.798927 46.698438 42.901549 C 42.100781 34.199881 43.798047 17.102092 34.1 10.100305 C 31.100781 8.000199 19.198438 11.39996 15.799609 12.90188 C 5.199219 17.700278 11.098828 31.299325 6.900781 42.200079 C 5.199219 46.701536 6.398047 50.200278 5.298047 52.700609 C 3.901563 56.100371 3.901563 58.200477 4.601953 59.698093 " transform="matrix(0.909091,0,0,0.907692,0,0)"/>
<path style=" stroke:none;fill-rule:nonzero;fill:rgb(10.980392%,10.980392%,10.588235%);fill-opacity:1;" d="M 30.089844 24.507812 C 30.089844 25.507812 29.273438 26.324219 28.273438 26.324219 C 27.273438 26.324219 26.453125 25.507812 26.453125 24.507812 C 26.453125 23.507812 27.273438 22.691406 28.273438 22.691406 C 29.273438 22.691406 30.089844 23.507812 30.089844 24.507812 "/>
<path style=" stroke:none;fill-rule:nonzero;fill:rgb(10.980392%,10.980392%,10.588235%);fill-opacity:1;" d="M 22.816406 24.507812 C 22.816406 25.507812 22 26.324219 21 26.324219 C 20 26.324219 19.183594 25.507812 19.183594 24.507812 C 19.183594 23.507812 20 22.691406 21 22.691406 C 22 22.691406 22.816406 23.507812 22.816406 24.507812 "/>
<path style=" stroke:none;fill-rule:nonzero;fill:rgb(0%,0%,0%);fill-opacity:1;" d="M 30.089844 24.507812 C 30.089844 25.507812 29.273438 26.324219 28.273438 26.324219 C 27.273438 26.324219 26.453125 25.507812 26.453125 24.507812 C 26.453125 23.507812 27.273438 22.691406 28.273438 22.691406 C 29.273438 22.691406 30.089844 23.507812 30.089844 24.507812 "/>
<path style=" stroke:none;fill-rule:nonzero;fill:rgb(0%,0%,0%);fill-opacity:1;" d="M 22.816406 24.507812 C 22.816406 25.507812 22 26.324219 21 26.324219 C 20 26.324219 19.183594 25.507812 19.183594 24.507812 C 19.183594 23.507812 20 22.691406 21 22.691406 C 22 22.691406 22.816406 23.507812 22.816406 24.507812 "/>
<path style="fill:none;stroke-width:1;stroke-linecap:round;stroke-linejoin:round;stroke:rgb(59.607843%,40.392157%,7.843137%);stroke-opacity:1;stroke-miterlimit:10;" d="M 20.401563 23.901615 L 22 23.299126 C 22 23.299126 23.598438 23.200146 24.801563 23.699351 " transform="matrix(0.909091,0,0,0.907692,0,0)"/>
<path style="fill:none;stroke-width:1;stroke-linecap:round;stroke-linejoin:round;stroke:rgb(59.607843%,40.392157%,7.843137%);stroke-opacity:1;stroke-miterlimit:10;" d="M 33.399609 23.901615 L 31.801172 23.299126 C 31.801172 23.299126 30.198438 23.200146 28.999609 23.699351 " transform="matrix(0.909091,0,0,0.907692,0,0)"/>
<path style="fill:none;stroke-width:2;stroke-linecap:round;stroke-linejoin:round;stroke:rgb(0%,0%,0%);stroke-opacity:1;stroke-miterlimit:4;" d="M 31.100781 14.799722 C 27.998438 16.400622 21.299609 16.701867 18.601172 18.401748 C 14.699609 20.699815 13.599609 23.901615 13.401953 24.499801 " transform="matrix(0.909091,0,0,0.907692,0,0)"/>
<path style="fill:none;stroke-width:2;stroke-linecap:round;stroke-linejoin:round;stroke:rgb(0%,0%,0%);stroke-opacity:1;stroke-miterlimit:4;" d="M 31.100781 14.799722 C 35.500781 16.400622 38.899609 27.198093 38.298047 35.301576 " transform="matrix(0.909091,0,0,0.907692,0,0)"/>
<path style="fill:none;stroke-width:2;stroke-linecap:round;stroke-linejoin:round;stroke:rgb(0%,0%,0%);stroke-opacity:1;stroke-miterlimit:10;" d="M 23.1 41.700874 C 19.8 43.998941 17.398047 44.60143 17.999609 50.398239 C 18.300391 53.901284 15.099219 56.401615 13.599609 58.200477 " transform="matrix(0.909091,0,0,0.907692,0,0)"/>
<path style="fill:none;stroke-width:2;stroke-linecap:round;stroke-linejoin:round;stroke:rgb(0%,0%,0%);stroke-opacity:1;stroke-miterlimit:10;" d="M 29.798828 41.799854 C 34.001172 44.399166 31.500391 48.801642 33.300781 50.699484 C 37.799609 55.497881 35.900391 59.099907 34.800391 60.498543 " transform="matrix(0.909091,0,0,0.907692,0,0)"/>
</g>
</svg>
