<?xml version="1.0" encoding="UTF-8"?>
<svg xmlns="http://www.w3.org/2000/svg" xmlns:xlink="http://www.w3.org/1999/xlink" width="50px" height="px" viewBox="0 0 50 59" version="1.1">
<g id="surface1">
<path style=" stroke:none;fill-rule:nonzero;fill:rgb(80.392157%,30.196078%,25.490196%);fill-opacity:1;" d="M 9.453125 40.847656 C 9 39.210938 6.273438 34.128906 8.273438 30.589844 C 8.636719 29.773438 9 28.046875 9.273438 27.230469 C 10.636719 24.234375 11.183594 23.964844 11.453125 18.425781 C 11.453125 15.066406 14 12.253906 17.363281 11.980469 C 17.636719 11.980469 17.816406 11.890625 18 11.710938 C 18.089844 11.617188 20.183594 9.257812 24.546875 9.257812 C 30.183594 9.257812 35.273438 11.527344 36.453125 15.976562 C 36.910156 17.789062 37.816406 20.332031 37.636719 22.238281 C 37.453125 24.054688 39.089844 26.230469 39.726562 27.957031 C 39.910156 28.683594 40.453125 31.679688 40.910156 32.222656 C 43.183594 36.671875 39.546875 41.84375 39.726562 41.574219 C 25.910156 52.738281 9.546875 41.117188 9.453125 40.847656 "/>
<path style=" stroke:none;fill-rule:nonzero;fill:rgb(100%,90.980392%,73.72549%);fill-opacity:1;" d="M 33.726562 24.6875 C 33.726562 24.6875 35 40.027344 23.726562 39.210938 C 18.636719 38.847656 14.363281 33.675781 14.363281 27.050781 C 14.363281 23.054688 16.726562 18.789062 19.816406 15.613281 C 22.273438 17.519531 24.726562 19.332031 27.453125 20.695312 C 29.726562 22.058594 33.363281 23.964844 33.726562 24.6875 "/>
<path style="fill:none;stroke-width:2;stroke-linecap:round;stroke-linejoin:round;stroke:rgb(1.176471%,1.568627%,1.568627%);stroke-opacity:1;stroke-miterlimit:4;" d="M 43.101953 45.199616 C 47.098047 39.200543 45.198828 33.799656 43.398438 29.100238 C 41.8 24.900026 42.298438 23.798332 40.798828 18.199484 C 39.299219 12.699616 33.498438 9.200874 27.100391 9.200874 C 21.699219 9.200874 19.099609 12.20041 19.099609 12.20041 C 14.901563 12.600636 11.700391 16.099378 11.700391 20.200609 C 11.300781 27.400358 11.700391 26.401947 9.298438 32.000794 C 7.498047 36.102026 8.301563 40.801443 11.098828 44.097921 " transform="matrix(0.909091,0,0,0.907692,0,0)"/>
<path style="fill:none;stroke-width:2;stroke-linecap:round;stroke-linejoin:round;stroke:rgb(1.176471%,1.568627%,1.568627%);stroke-opacity:1;stroke-miterlimit:4;" d="M 23.198828 36.497948 C 25.098047 37.500662 27.298047 37.500662 29.201563 36.497948 " transform="matrix(0.909091,0,0,0.907692,0,0)"/>
<path style=" stroke:none;fill-rule:nonzero;fill:rgb(0%,0%,0%);fill-opacity:1;" d="M 29.453125 25.777344 C 29.453125 26.777344 28.636719 27.59375 27.636719 27.59375 C 26.636719 27.59375 25.816406 26.777344 25.816406 25.777344 C 25.816406 24.78125 26.636719 23.964844 27.636719 23.964844 C 28.636719 23.964844 29.453125 24.78125 29.453125 25.777344 "/>
<path style=" stroke:none;fill-rule:nonzero;fill:rgb(0%,0%,0%);fill-opacity:1;" d="M 22.183594 25.777344 C 22.183594 26.777344 21.363281 27.59375 20.363281 27.59375 C 19.363281 27.59375 18.546875 26.777344 18.546875 25.777344 C 18.546875 24.78125 19.363281 23.964844 20.363281 23.964844 C 21.363281 23.964844 22.183594 24.78125 22.183594 25.777344 "/>
<path style="fill:none;stroke-width:1;stroke-linecap:round;stroke-linejoin:round;stroke:rgb(51.372549%,40.392157%,29.803922%);stroke-opacity:1;stroke-miterlimit:10;" d="M 18.901953 24.702066 L 20.500391 24.099576 C 20.500391 24.099576 22.898047 23.600371 24.401953 24.099576 " transform="matrix(0.909091,0,0,0.907692,0,0)"/>
<path style="fill:none;stroke-width:1;stroke-linecap:round;stroke-linejoin:round;stroke:rgb(51.372549%,40.392157%,29.803922%);stroke-opacity:1;stroke-miterlimit:10;" d="M 34.1 24.702066 L 32.501563 24.099576 C 32.501563 24.099576 30.099609 23.600371 28.6 24.099576 " transform="matrix(0.909091,0,0,0.907692,0,0)"/>
<path style=" stroke:none;fill-rule:nonzero;fill:rgb(84.313725%,84.705882%,87.058824%);fill-opacity:1;" d="M 6.363281 59 L 6.363281 50.105469 C 6.363281 45.566406 10.910156 41.933594 15.453125 41.933594 C 20.910156 46.472656 26.363281 46.472656 31.816406 41.933594 C 36.363281 41.933594 40.910156 45.566406 40.910156 50.105469 L 40.910156 59 Z M 6.363281 59 "/>
<path style=" stroke:none;fill-rule:nonzero;fill:rgb(66.666667%,68.627451%,70.980392%);fill-opacity:1;" d="M 32.273438 41.753906 C 29.363281 43.660156 27.816406 44.476562 24.183594 45.023438 C 36 45.382812 36 55.371094 36.636719 59 L 41.273438 59 C 41.363281 59 43.183594 41.753906 32.273438 41.753906 "/>
<path style="fill-rule:nonzero;fill:rgb(100%,90.980392%,73.72549%);fill-opacity:1;stroke-width:2;stroke-linecap:round;stroke-linejoin:round;stroke:rgb(11.372549%,11.372549%,10.588235%);stroke-opacity:1;stroke-miterlimit:10;" d="M 19.301563 48.801642 C 18.601172 54.800715 24.298828 55.398901 26.099219 58.901947 C 28.101563 55.20094 33.098828 54.800715 32.699219 48.801642 " transform="matrix(0.909091,0,0,0.907692,0,0)"/>
<path style="fill:none;stroke-width:2;stroke-linecap:round;stroke-linejoin:round;stroke:rgb(10.980392%,10.980392%,10.588235%);stroke-opacity:1;stroke-miterlimit:4;" d="M 7.098438 64.001589 L 7.098438 54.998676 C 7.098438 49.998014 12.1 46.000066 17.101562 46.000066 C 23.1 51.000728 29.098438 51.000728 35.101172 46.000066 C 40.098438 46.000066 45.1 49.998014 45.1 54.998676 L 45.1 64.001589 " transform="matrix(0.909091,0,0,0.907692,0,0)"/>
<path style="fill:none;stroke-width:2;stroke-linecap:round;stroke-linejoin:round;stroke:rgb(1.176471%,1.568627%,1.568627%);stroke-opacity:1;stroke-miterlimit:4;" d="M 37.099219 27.198093 C 37.700781 37.599642 32.101953 43.19849 26.099219 43.19849 C 20.100781 43.19849 15.099219 37.199417 15.099219 29.199219 C 15.099219 24.198557 17.101562 21.19902 21.101953 17.201073 C 25.098047 21.19902 39.698828 24.099576 40.300391 32.697961 " transform="matrix(0.909091,0,0,0.907692,0,0)"/>
</g>
</svg>
