<?xml version="1.0" encoding="UTF-8"?>
<svg xmlns="http://www.w3.org/2000/svg" xmlns:xlink="http://www.w3.org/1999/xlink" width="50px" height="px" viewBox="0 0 50 59" version="1.1">
<g id="surface1">
<path style=" stroke:none;fill-rule:nonzero;fill:rgb(100%,100%,100%);fill-opacity:1;" d="M 7.929688 58.964844 L 7.929688 50.042969 C 7.929688 45.507812 12.480469 41.871094 17.019531 41.871094 C 22.472656 46.410156 27.929688 46.410156 33.382812 41.871094 C 37.921875 41.871094 42.472656 45.507812 42.472656 50.042969 L 42.472656 58.964844 Z M 7.929688 58.964844 "/>
<path style=" stroke:none;fill-rule:nonzero;fill:rgb(84.313725%,84.705882%,87.058824%);fill-opacity:1;" d="M 33.804688 41.753906 C 30.921875 43.671875 29.371094 44.476562 25.679688 45.011719 C 37.554688 45.382812 37.554688 55.371094 38.246094 59 L 42.894531 59 C 42.894531 59 44.710938 41.753906 33.804688 41.753906 "/>
<path style=" stroke:none;fill-rule:nonzero;fill:rgb(100%,90.980392%,73.72549%);fill-opacity:1;" d="M 17.644531 37.242188 C 16.773438 47.253906 22.199219 49.023438 25.320312 53.882812 C 27.863281 47.753906 33.886719 48.1875 33.410156 38.171875 "/>
<path style="fill:none;stroke-width:2;stroke-linecap:round;stroke-linejoin:round;stroke:rgb(0%,0%,0%);stroke-opacity:1;stroke-miterlimit:4;" d="M 8.873047 64.005892 L 8.873047 55.007283 C 8.873047 50.015228 13.883203 46.008673 18.876172 46.008673 C 19.623828 46.63268 20.375781 47.179224 21.123438 47.648305 L 21.046094 48.814552 C 20.367188 54.860964 26.000391 55.450543 27.878125 58.962195 C 29.846094 55.261189 34.834766 54.860964 34.460938 48.814552 L 34.271875 47.86348 C 35.139844 47.351364 36.007812 46.73166 36.875781 46.008673 C 41.86875 46.008673 46.874609 50.015228 46.874609 55.011586 L 46.874609 64.010196 " transform="matrix(0.909091,0,0,0.907692,0,0)"/>
<path style=" stroke:none;fill-rule:nonzero;fill:rgb(40.784314%,28.627451%,17.647059%);fill-opacity:1;" d="M 37.300781 56.011719 C 37.4375 38.367188 41.910156 12.382812 31.1875 11.433594 C 25.449219 10.925781 17.914062 12.769531 13.925781 16.945312 C 8.804688 22.308594 10.578125 44.710938 12.113281 55.992188 C 15.089844 56.027344 13.472656 55.925781 16.488281 55.996094 C 16.445312 53.339844 20.128906 40.625 20.085938 37.972656 C 25.449219 37.753906 24.75 37.644531 30.109375 37.425781 C 30.285156 40.207031 32.953125 53.214844 33.128906 56 C 34.730469 56.136719 35.699219 55.875 37.300781 56.011719 "/>
<path style=" stroke:none;fill-rule:nonzero;fill:rgb(100%,90.980392%,73.72549%);fill-opacity:1;" d="M 15.660156 25.480469 L 15.660156 26.355469 C 15.660156 33.363281 19.960938 38.855469 25.453125 38.855469 C 30.941406 38.855469 34.828125 34.089844 34.34375 27.097656 C 34.101562 23.628906 34.484375 17.617188 30.09375 15.582031 C 25.945312 15.007812 21.011719 17.902344 18.070312 19.433594 C 15.605469 20.820312 16.09375 24.710938 15.660156 25.480469 "/>
<path style="fill:none;stroke-width:2;stroke-linecap:round;stroke-linejoin:round;stroke:rgb(0%,0%,0%);stroke-opacity:1;stroke-miterlimit:10;" d="M 24.767188 36.915387 C 26.644922 37.918101 28.892188 37.918101 30.769922 36.915387 " transform="matrix(0.909091,0,0,0.907692,0,0)"/>
<path style=" stroke:none;fill-rule:nonzero;fill:rgb(10.980392%,10.980392%,10.588235%);fill-opacity:1;" d="M 30.660156 25.808594 C 30.660156 26.8125 29.847656 27.625 28.84375 27.625 C 27.839844 27.625 27.023438 26.8125 27.023438 25.808594 C 27.023438 24.808594 27.839844 23.992188 28.84375 23.992188 C 29.847656 23.992188 30.660156 24.808594 30.660156 25.808594 "/>
<path style=" stroke:none;fill-rule:nonzero;fill:rgb(10.980392%,10.980392%,10.588235%);fill-opacity:1;" d="M 23.386719 25.808594 C 23.386719 26.8125 22.574219 27.625 21.570312 27.625 C 20.566406 27.625 19.75 26.8125 19.75 25.808594 C 19.75 24.808594 20.566406 23.992188 21.570312 23.992188 C 22.574219 23.992188 23.386719 24.808594 23.386719 25.808594 "/>
<path style=" stroke:none;fill-rule:nonzero;fill:rgb(0%,0%,0%);fill-opacity:1;" d="M 30.660156 25.808594 C 30.660156 26.8125 29.847656 27.625 28.84375 27.625 C 27.839844 27.625 27.023438 26.8125 27.023438 25.808594 C 27.023438 24.808594 27.839844 23.992188 28.84375 23.992188 C 29.847656 23.992188 30.660156 24.808594 30.660156 25.808594 "/>
<path style=" stroke:none;fill-rule:nonzero;fill:rgb(0%,0%,0%);fill-opacity:1;" d="M 23.386719 25.808594 C 23.386719 26.8125 22.574219 27.625 21.570312 27.625 C 20.566406 27.625 19.75 26.8125 19.75 25.808594 C 19.75 24.808594 20.566406 23.992188 21.570312 23.992188 C 22.574219 23.992188 23.386719 24.808594 23.386719 25.808594 "/>
<path style="fill:none;stroke-width:2;stroke-linecap:round;stroke-linejoin:round;stroke:rgb(0%,0%,0%);stroke-opacity:1;stroke-miterlimit:10;" d="M 41.065234 60.66638 C 42.994531 47.50629 42.942969 13.383872 36.338672 12.045485 C 27.697656 10.293962 16.310938 15.118181 13.410547 21.487354 C 10.196484 28.540784 12.289063 48.990996 13.324609 60.705111 " transform="matrix(0.909091,0,0,0.907692,0,0)"/>
<path style="fill:none;stroke-width:1;stroke-linecap:round;stroke-linejoin:round;stroke:rgb(51.372549%,40.392157%,29.803922%);stroke-opacity:1;stroke-miterlimit:10;" d="M 19.885938 25.029131 L 21.492969 24.426642 C 21.492969 24.426642 23.916406 23.914526 25.364453 24.47398 " transform="matrix(0.909091,0,0,0.907692,0,0)"/>
<path style="fill:none;stroke-width:1;stroke-linecap:round;stroke-linejoin:round;stroke:rgb(51.372549%,40.392157%,29.803922%);stroke-opacity:1;stroke-miterlimit:10;" d="M 35.101172 25.029131 L 33.498438 24.426642 C 33.498438 24.426642 31.070703 23.914526 29.626953 24.47398 " transform="matrix(0.909091,0,0,0.907692,0,0)"/>
<path style="fill:none;stroke-width:2;stroke-linecap:butt;stroke-linejoin:round;stroke:rgb(0%,0%,0%);stroke-opacity:1;stroke-miterlimit:4;" d="M 16.766406 29.663996 C 16.766406 37.664195 21.767969 43.667572 27.766406 43.667572 C 33.769141 43.667572 37.60625 37.853549 37.778125 29.85335 C 37.855469 26.212593 34.413672 17.355998 34.413672 17.355998 C 34.413672 17.355998 16.770703 16.331766 16.770703 28.665585 Z M 16.766406 29.663996 " transform="matrix(0.909091,0,0,0.907692,0,0)"/>
<path style="fill:none;stroke-width:2;stroke-linecap:round;stroke-linejoin:round;stroke:rgb(0%,0%,0%);stroke-opacity:1;stroke-miterlimit:10;" d="M 22.391016 42.083885 C 21.828125 45.896782 18.704297 56.857786 18.137109 60.670683 " transform="matrix(0.909091,0,0,0.907692,0,0)"/>
<path style="fill:none;stroke-width:2;stroke-linecap:round;stroke-linejoin:round;stroke:rgb(0%,0%,0%);stroke-opacity:1;stroke-miterlimit:10;" d="M 33.094531 41.76973 C 33.378125 45.617055 36.153906 56.896517 36.441797 60.743843 " transform="matrix(0.909091,0,0,0.907692,0,0)"/>
</g>
</svg>
