<?xml version="1.0" encoding="UTF-8"?>
<svg xmlns="http://www.w3.org/2000/svg" xmlns:xlink="http://www.w3.org/1999/xlink" width="50px" height="px" viewBox="0 0 50 59" version="1.1">
<g id="surface1">
<path style=" stroke:none;fill-rule:nonzero;fill:rgb(15.686275%,9.803922%,7.45098%);fill-opacity:1;" d="M 43.140625 57.414062 C 44.5625 57.042969 45.660156 55.910156 45.984375 54.480469 C 46.472656 53.183594 46.539062 51.765625 46.175781 50.433594 C 47.410156 50.230469 48.453125 48.507812 48.546875 46.382812 C 48.644531 44.257812 47.882812 42.335938 46.746094 41.832031 C 47.417969 40.878906 47.8125 39.757812 47.882812 38.59375 C 47.980469 36.570312 47.410156 34.847656 46.367188 34.242188 C 46.460938 34.242188 46.554688 34.140625 46.652344 34.140625 C 47.980469 33.433594 48.359375 31.003906 47.503906 28.777344 C 46.839844 26.957031 45.605469 25.84375 44.46875 25.945312 C 45.039062 24.515625 45.039062 22.921875 44.46875 21.492188 C 43.710938 19.46875 42.191406 18.253906 40.863281 18.660156 C 41.429688 17.242188 40.863281 15.21875 39.4375 13.800781 C 38.964844 13.371094 38.417969 13.03125 37.824219 12.789062 L 37.824219 12.382812 C 37.683594 10.53125 36.078125 9.132812 34.21875 9.246094 C 33.554688 9.261719 32.902344 9.433594 32.320312 9.753906 C 31.890625 7.976562 30.128906 6.855469 28.332031 7.222656 C 27.566406 7.429688 26.875 7.851562 26.339844 8.4375 C 25.664062 7.125 24.167969 6.453125 22.734375 6.820312 C 21.503906 7.125 20.484375 7.984375 19.980469 9.148438 C 19.183594 8.230469 17.933594 7.839844 16.753906 8.136719 C 14.671875 8.636719 13.371094 10.699219 13.8125 12.789062 L 13.8125 12.890625 C 12.601562 12.59375 11.328125 12.980469 10.492188 13.902344 C 9.066406 15.320312 8.402344 17.34375 9.066406 18.757812 C 7.832031 18.355469 6.21875 19.46875 5.460938 21.59375 C 4.890625 23.023438 4.890625 24.617188 5.460938 26.046875 C 4.320312 26.046875 3.085938 27.15625 2.421875 28.878906 C 1.570312 31.105469 1.949219 33.53125 3.277344 34.242188 C 3.371094 34.242188 3.46875 34.34375 3.5625 34.34375 C 2.519531 35.050781 1.949219 36.769531 2.042969 38.695312 C 2.132812 39.824219 2.527344 40.90625 3.183594 41.832031 C 2.042969 42.335938 1.191406 44.257812 1.378906 46.382812 C 1.570312 48.507812 2.613281 50.230469 3.847656 50.429688 C 3.402344 51.75 3.4375 53.183594 3.941406 54.480469 C 4.332031 55.875 5.402344 56.980469 6.789062 57.414062 "/>
<path style=" stroke:none;fill-rule:nonzero;fill:rgb(66.27451%,98.823529%,94.901961%);fill-opacity:1;" d="M 43.234375 58.832031 C 42.96875 58.835938 42.710938 58.730469 42.53125 58.539062 C 42.351562 58.34375 42.261719 58.082031 42.285156 57.820312 L 42.285156 54.78125 C 42.285156 50.230469 38.015625 45.878906 34.121094 45.675781 C 28.238281 50.734375 22.257812 50.734375 16.375 45.675781 C 12.484375 45.878906 7.261719 50.230469 7.261719 54.78125 L 7.261719 57.820312 C 7.289062 58.082031 7.199219 58.34375 7.015625 58.539062 C 6.835938 58.730469 6.578125 58.835938 6.316406 58.832031 "/>
<path style=" stroke:none;fill-rule:nonzero;fill:rgb(97.647059%,86.27451%,74.509804%);fill-opacity:1;" d="M 14.855469 26.957031 L 14.855469 27.96875 C 14.855469 35.65625 19.222656 41.730469 24.820312 41.730469 C 30.421875 41.730469 34.785156 35.65625 34.785156 27.96875 C 34.785156 23.515625 33.269531 20.683594 30.328125 17.242188 C 30.054688 16.839844 29.566406 16.640625 29.09375 16.734375 C 25.796875 17.265625 22.617188 18.363281 19.695312 19.972656 C 17.132812 21.492188 15.332031 26.144531 14.855469 26.957031 Z M 14.855469 26.957031 "/>
<path style=" stroke:none;fill-rule:nonzero;fill:rgb(43.137255%,80%,74.509804%);fill-opacity:1;" d="M 30.230469 48.609375 C 31.398438 47.921875 32.507812 47.144531 33.554688 46.28125 C 33.554688 46.28125 42.472656 44.5625 42.757812 58.832031 L 37.445312 58.832031 C 37.445312 58.832031 37.445312 51.039062 30.230469 48.609375 Z M 30.230469 48.609375 "/>
<path style="fill:none;stroke-width:2;stroke-linecap:round;stroke-linejoin:miter;stroke:rgb(0%,0%,0%);stroke-opacity:1;stroke-miterlimit:10;" d="M 3.501953 38.060117 C 2.432031 39.325344 1.937891 40.98219 2.144141 42.630429 C 2.247266 43.719213 2.565234 44.782177 3.085156 45.750463 C 3.188281 45.974245 3.188281 46.198027 2.977734 46.305614 C 1.830469 47.088851 1.1 48.982389 1.310547 51.099709 C 1.516797 53.221332 2.457813 55.11487 3.708203 55.55813 C 3.824219 55.571041 3.914453 55.665718 3.91875 55.781912 C 3.514844 57.180548 3.587891 58.669558 4.125 60.020855 M 14.983203 14.201536 C 13.689844 13.94763 12.353516 14.365069 11.433984 15.316141 C 10.063281 16.50821 9.397266 18.315678 9.659375 20.110236 C 9.659375 20.334017 9.55625 20.557799 9.345703 20.557799 L 9.242578 20.557799 C 7.987891 20.557799 6.634375 21.784296 5.899609 23.677834 C 5.3625 25.063559 5.289453 26.5913 5.693359 28.024364 C 5.740625 28.127648 5.744922 28.243843 5.70625 28.347127 C 5.667578 28.45041 5.585938 28.53648 5.482813 28.583819 C 4.086328 29.126059 3.012109 30.275093 2.560938 31.703853 C 1.619922 34.156846 2.041016 36.83362 3.501953 37.612553 M 41.606641 14.201536 L 41.606641 13.977754 C 41.451953 11.933594 39.685938 10.397246 37.640625 10.522047 C 37.064844 10.517744 36.497656 10.629635 35.969141 10.85772 C 35.870313 10.905058 35.758594 10.909362 35.655469 10.866327 C 35.556641 10.823292 35.479297 10.737222 35.449219 10.633938 C 34.813281 8.886719 32.978516 7.884004 31.165234 8.292836 C 30.443359 8.400424 29.781641 8.75331 29.2875 9.295551 C 29.094141 9.407442 28.853516 9.407442 28.660156 9.295551 C 27.809375 8.107786 26.33125 7.535421 24.904688 7.845273 C 23.727344 8.11209 22.730469 8.891022 22.189063 9.966896 C 22.081641 10.186374 21.772266 10.186374 21.561719 10.078787 C 20.706641 9.321372 19.537891 9.033038 18.429297 9.295551 C 16.139063 9.850702 14.708203 12.122948 15.19375 14.425318 M 51.107031 37.724444 C 51.210156 37.724444 51.210156 37.724444 51.317578 37.612553 C 52.778516 36.83362 53.195313 34.156846 52.254297 31.703853 C 51.871875 30.236361 50.771875 29.061507 49.332422 28.583819 C 49.121875 28.583819 49.01875 28.360037 49.01875 28.136255 C 49.422656 26.703191 49.349609 25.17545 48.808203 23.789725 C 48.077734 21.784296 46.724219 20.557799 45.469531 20.665387 C 45.2375 20.643869 45.061328 20.454515 45.052734 20.222127 L 45.052734 20.110236 C 45.332031 17.713189 44.021484 15.406515 41.817188 14.425318 L 41.606641 14.313427 M 50.690234 60.020855 C 51.205859 58.747021 51.317578 57.344081 51.003906 56.005694 C 50.956641 55.906713 50.952344 55.790519 50.991016 55.682932 C 51.029688 55.579648 51.107031 55.493578 51.210156 55.450543 C 52.464844 55.002979 53.401563 53.221332 53.508984 50.992121 C 53.612109 48.76291 52.984766 46.865069 51.8375 46.198027 C 51.626953 46.086136 51.626953 45.862354 51.734375 45.638573 C 52.267188 44.717624 52.585156 43.689089 52.675391 42.630429 C 52.898828 41.033832 52.443359 39.415718 51.420703 38.172007 L 51.210156 37.948226 " transform="matrix(0.909091,0,0,0.907692,0,0)"/>
<path style="fill:none;stroke-width:2;stroke-linecap:round;stroke-linejoin:round;stroke:rgb(0%,0%,0%);stroke-opacity:1;stroke-miterlimit:4;" d="M 7.364844 63.700344 L 7.364844 60.352225 C 7.364844 54.779198 12.58125 50.320776 17.801953 50.320776 C 24.066797 55.893803 30.331641 55.893803 36.596484 50.320776 C 41.817188 50.320776 47.033594 54.779198 47.033594 60.352225 L 47.033594 63.700344 " transform="matrix(0.909091,0,0,0.907692,0,0)"/>
<path style=" stroke:none;fill-rule:nonzero;fill:rgb(0%,0%,0%);fill-opacity:1;" d="M 30.421875 27.460938 C 30.351562 28.492188 29.472656 29.28125 28.441406 29.234375 C 27.40625 29.1875 26.597656 28.328125 26.621094 27.296875 C 26.644531 26.261719 27.488281 25.4375 28.523438 25.4375 C 29.605469 25.476562 30.453125 26.382812 30.421875 27.460938 "/>
<path style=" stroke:none;fill-rule:nonzero;fill:rgb(0%,0%,0%);fill-opacity:1;" d="M 22.828125 27.460938 C 22.761719 28.492188 21.878906 29.28125 20.847656 29.234375 C 19.8125 29.1875 19.003906 28.328125 19.027344 27.296875 C 19.050781 26.261719 19.894531 25.4375 20.929688 25.4375 C 22.011719 25.476562 22.859375 26.382812 22.828125 27.460938 "/>
<path style="fill:none;stroke-width:2;stroke-linecap:butt;stroke-linejoin:round;stroke:rgb(0%,0%,0%);stroke-opacity:1;stroke-miterlimit:4;" d="M 15.713672 31.368181 C 15.713672 40.289327 20.934375 46.97696 27.199219 46.97696 C 33.464063 46.97696 38.684766 40.289327 38.684766 31.368181 C 38.684766 26.018935 36.802734 22.78701 33.047266 18.659958 C 32.604688 18.221001 31.998828 17.975702 31.375781 17.992916 C 24.483594 18.99563 16.237891 24.013506 15.713672 30.253575 Z M 15.713672 31.368181 " transform="matrix(0.909091,0,0,0.907692,0,0)"/>
<path style="fill:none;stroke-width:2;stroke-linecap:round;stroke-linejoin:round;stroke:rgb(0%,0%,0%);stroke-opacity:1;stroke-miterlimit:4;" d="M 24.066797 39.3942 C 26.004688 40.508806 28.39375 40.508806 30.331641 39.3942 " transform="matrix(0.909091,0,0,0.907692,0,0)"/>
<path style="fill:none;stroke-width:1;stroke-linecap:round;stroke-linejoin:miter;stroke:rgb(15.686275%,9.803922%,7.45098%);stroke-opacity:1;stroke-miterlimit:10;" d="M 24.797266 26.130826 C 23.142969 25.683263 21.376953 26.010328 19.997656 27.02165 " transform="matrix(0.909091,0,0,0.907692,0,0)"/>
<path style="fill:none;stroke-width:1;stroke-linecap:round;stroke-linejoin:miter;stroke:rgb(15.686275%,9.803922%,7.45098%);stroke-opacity:1;stroke-miterlimit:10;" d="M 29.601172 26.130826 C 31.285547 25.69187 33.081641 26.018935 34.508203 27.02165 " transform="matrix(0.909091,0,0,0.907692,0,0)"/>
</g>
</svg>
