<?xml version="1.0" encoding="UTF-8"?>
<svg xmlns="http://www.w3.org/2000/svg" xmlns:xlink="http://www.w3.org/1999/xlink" width="50px" height="px" viewBox="0 0 50 59" version="1.1">
<g id="surface1">
<path style=" stroke:none;fill-rule:nonzero;fill:rgb(87.058824%,51.764706%,22.745098%);fill-opacity:1;" d="M 15.816406 30.589844 C 12 14.976562 17.273438 6.535156 25.273438 6.171875 C 38.453125 5.628906 41.636719 21.332031 38.636719 23.417969 "/>
<path style=" stroke:none;fill-rule:nonzero;fill:rgb(10.980392%,10.980392%,10.588235%);fill-opacity:1;" d="M 30.636719 25.234375 C 30.636719 26.230469 29.816406 27.050781 28.816406 27.050781 C 27.816406 27.050781 27 26.230469 27 25.234375 C 27 24.234375 27.816406 23.417969 28.816406 23.417969 C 29.816406 23.417969 30.636719 24.234375 30.636719 25.234375 "/>
<path style=" stroke:none;fill-rule:nonzero;fill:rgb(10.980392%,10.980392%,10.588235%);fill-opacity:1;" d="M 23.363281 25.234375 C 23.363281 26.230469 22.546875 27.050781 21.546875 27.050781 C 20.546875 27.050781 19.726562 26.230469 19.726562 25.234375 C 19.726562 24.234375 20.546875 23.417969 21.546875 23.417969 C 22.546875 23.417969 23.363281 24.234375 23.363281 25.234375 "/>
<path style=" stroke:none;fill-rule:nonzero;fill:rgb(100%,90.980392%,73.72549%);fill-opacity:1;" d="M 15.273438 26.140625 C 15.183594 33.402344 19 38.847656 25.273438 38.847656 C 31.726562 38.847656 35.363281 33.402344 35.363281 26.140625 L 35.363281 23.507812 C 29.910156 21.332031 24.453125 15.523438 18.183594 15.523438 C 18.183594 15.523438 15.363281 21.601562 15.273438 26.140625 "/>
<path style=" stroke:none;fill-rule:nonzero;fill:rgb(0%,0%,0%);fill-opacity:1;" d="M 30.636719 25.234375 C 30.636719 26.230469 29.816406 27.050781 28.816406 27.050781 C 27.816406 27.050781 27 26.230469 27 25.234375 C 27 24.234375 27.816406 23.417969 28.816406 23.417969 C 29.816406 23.417969 30.636719 24.234375 30.636719 25.234375 "/>
<path style=" stroke:none;fill-rule:nonzero;fill:rgb(0%,0%,0%);fill-opacity:1;" d="M 23.363281 25.234375 C 23.363281 26.230469 22.546875 27.050781 21.546875 27.050781 C 20.546875 27.050781 19.726562 26.230469 19.726562 25.234375 C 19.726562 24.234375 20.546875 23.417969 21.546875 23.417969 C 22.546875 23.417969 23.363281 24.234375 23.363281 25.234375 "/>
<path style="fill:none;stroke-width:2;stroke-linecap:round;stroke-linejoin:round;stroke:rgb(0%,0%,0%);stroke-opacity:1;stroke-miterlimit:4;" d="M 24.298828 35.800781 C 25.600781 37.599642 29.798828 37.500662 31.199609 35.800781 " transform="matrix(0.909091,0,0,0.907692,0,0)"/>
<path style=" stroke:none;fill-rule:nonzero;fill:rgb(11.372549%,11.372549%,10.588235%);fill-opacity:1;" d="M 42.363281 58.910156 C 41.816406 58.910156 42.363281 49.742188 42.363281 49.742188 C 42.363281 45.65625 37.363281 41.753906 33.546875 41.664062 C 27.910156 46.203125 22.546875 46.109375 16.910156 41.574219 C 13.089844 41.753906 7.910156 44.660156 7.910156 48.652344 C 7.910156 48.652344 8.273438 58.820312 7.816406 58.820312 "/>
<path style=" stroke:none;fill-rule:nonzero;fill:rgb(0%,0%,0%);fill-opacity:1;" d="M 33.546875 42.117188 C 30.636719 44.023438 29.089844 44.839844 25.453125 45.382812 C 37.273438 45.746094 37.273438 55.730469 38 59.363281 L 42.636719 59.363281 C 42.636719 59.363281 44.453125 42.117188 33.546875 42.117188 "/>
<path style="fill:none;stroke-width:2;stroke-linecap:round;stroke-linejoin:round;stroke:rgb(1.176471%,1.568627%,1.568627%);stroke-opacity:1;stroke-miterlimit:4;" d="M 8.598047 63.799325 L 8.598047 54.800715 C 8.598047 49.800053 13.599609 45.802105 18.601172 45.802105 C 24.599609 50.798464 30.598047 50.798464 36.600781 45.802105 C 41.598047 45.802105 46.599609 49.800053 46.599609 54.800715 L 46.599609 63.799325 " transform="matrix(0.909091,0,0,0.907692,0,0)"/>
<path style="fill:none;stroke-width:1;stroke-linecap:round;stroke-linejoin:round;stroke:rgb(87.058824%,51.764706%,22.745098%);stroke-opacity:1;stroke-miterlimit:10;" d="M 20.401563 24.301841 L 22 23.699351 C 22 23.699351 24.401953 23.200146 25.901563 23.699351 " transform="matrix(0.909091,0,0,0.907692,0,0)"/>
<path style="fill:none;stroke-width:1;stroke-linecap:round;stroke-linejoin:round;stroke:rgb(87.058824%,51.764706%,22.745098%);stroke-opacity:1;stroke-miterlimit:10;" d="M 35.599609 24.301841 L 34.001172 23.699351 C 34.001172 23.699351 31.599219 23.200146 30.099609 23.699351 " transform="matrix(0.909091,0,0,0.907692,0,0)"/>
<path style="fill:none;stroke-width:2;stroke-linecap:round;stroke-linejoin:round;stroke:rgb(11.372549%,11.372549%,10.588235%);stroke-opacity:1;stroke-miterlimit:10;" d="M 16.800781 31.901814 C 12.598438 17.799258 17.398047 11.800185 23.1 8.400424 " transform="matrix(0.909091,0,0,0.907692,0,0)"/>
<path style="fill:none;stroke-width:2;stroke-linecap:round;stroke-linejoin:round;stroke:rgb(11.372549%,11.372549%,10.588235%);stroke-opacity:1;stroke-miterlimit:10;" d="M 27.5 9.79906 C 28.200391 8.400424 31.698047 5.702132 34.701563 7.901218 " transform="matrix(0.909091,0,0,0.907692,0,0)"/>
<path style="fill:none;stroke-width:2;stroke-linecap:round;stroke-linejoin:round;stroke:rgb(11.372549%,11.372549%,10.588235%);stroke-opacity:1;stroke-miterlimit:10;" d="M 33.601562 12.20041 C 34.800391 11.201999 39.101562 10.100305 40.901953 13.401086 " transform="matrix(0.909091,0,0,0.907692,0,0)"/>
<path style="fill:none;stroke-width:2;stroke-linecap:round;stroke-linejoin:round;stroke:rgb(11.372549%,11.372549%,10.588235%);stroke-opacity:1;stroke-miterlimit:10;" d="M 36.3 18.401748 C 37.601953 17.498014 41.898828 16.701867 43.501563 20.101629 " transform="matrix(0.909091,0,0,0.907692,0,0)"/>
<path style="fill:none;stroke-width:1;stroke-linecap:round;stroke-linejoin:round;stroke:rgb(59.607843%,40.392157%,7.843137%);stroke-opacity:1;stroke-miterlimit:10;" d="M 26.498828 27.301377 C 26.4 29.500463 25.201172 30.399894 23.001172 30.399894 C 20.801172 30.399894 19.000781 29.100238 19.000781 26.901152 C 19.000781 25.799457 19.099609 25.201271 19.099609 25.201271 C 19.8 24.499801 21.798047 24.499801 22.898047 24.499801 C 24.2 24.499801 26.498828 24.702066 26.498828 24.702066 C 26.498828 24.702066 26.601953 26.298663 26.498828 27.301377 Z M 26.498828 27.301377 " transform="matrix(0.909091,0,0,0.907692,0,0)"/>
<path style="fill:none;stroke-width:1;stroke-linecap:round;stroke-linejoin:round;stroke:rgb(59.607843%,40.392157%,7.843137%);stroke-opacity:1;stroke-miterlimit:10;" d="M 28.999609 27.301377 C 29.098438 29.500463 30.301563 30.399894 32.501563 30.399894 C 34.701563 30.399894 36.501953 29.100238 36.501953 26.901152 C 36.501953 25.799457 36.398828 25.201271 36.398828 25.201271 C 35.698438 24.499801 33.700391 24.499801 32.600391 24.499801 C 31.298438 24.499801 28.999609 24.702066 28.999609 24.702066 C 28.999609 24.702066 28.900781 26.298663 28.999609 27.301377 Z M 28.999609 27.301377 " transform="matrix(0.909091,0,0,0.907692,0,0)"/>
<path style="fill:none;stroke-width:1;stroke-linecap:round;stroke-linejoin:round;stroke:rgb(59.607843%,40.392157%,7.843137%);stroke-opacity:1;stroke-miterlimit:10;" d="M 16.998438 26.901152 L 19.000781 26.901152 " transform="matrix(0.909091,0,0,0.907692,0,0)"/>
<path style="fill:none;stroke-width:1;stroke-linecap:round;stroke-linejoin:round;stroke:rgb(59.607843%,40.392157%,7.843137%);stroke-opacity:1;stroke-miterlimit:10;" d="M 36.901563 26.797868 L 38.998438 26.797868 " transform="matrix(0.909091,0,0,0.907692,0,0)"/>
<path style="fill:none;stroke-width:2;stroke-linecap:round;stroke-linejoin:round;stroke:rgb(11.372549%,11.372549%,10.588235%);stroke-opacity:1;stroke-miterlimit:10;" d="M 42.500391 25.799457 C 36.3 27.899563 23.1 12.299391 20.001953 17.102092 C 20.001953 17.102092 16.899609 23.798332 16.800781 28.798994 C 16.701953 36.799192 21.699219 42.798265 27.800781 42.798265 C 33.700391 42.798265 38.899609 39.101562 38.899609 25.898438 " transform="matrix(0.909091,0,0,0.907692,0,0)"/>
</g>
</svg>
